<svg width="1449" height="1317" viewBox="0 0 1449 1317" fill="none" xmlns="http://www.w3.org/2000/svg">
<path d="M959 27.001C1034.17 2.16766 1176.6 -2.399 1145 178.001C1113.4 358.401 819.5 253.168 676.5 178.001C622.834 149.167 490.2 102.9 389 148.5C262.5 205.5 230 270 257.5 307C285 344 416.5 399 523 376.5C629.5 354 847 376 884.5 406C922 436 988.5 681 884.5 649C780.5 617 418.5 592 374 649C329.5 706 310 825.5 404 857.5C498 889.5 907 681 1036 748C1165 815 1236.5 986.5 1130 1013.5C1023.5 1040.5 582 907.5 478 976.5C374 1045.5 314.5 1110.5 433.5 1157.5C552.5 1204.5 498 1041 389 1090.5C280 1140 314 1286 418.5 1301C523 1316 852.5 1014 1036 1157.5C1182.8 1272.3 1148.5 1301 1113 1301" stroke="#5056EC" stroke-width="3" stroke-linecap="round" stroke-dasharray="15 15"/>
<rect x="910.219" y="115.713" width="500" height="80" rx="25" transform="rotate(2.00951 910.219 115.713)" fill="white"/>
<path d="M960.581 166.109L958.202 166.042L958.607 151.6L960.987 151.666L960.826 157.404L968.047 157.607L968.208 151.869L970.587 151.936L970.181 166.378L967.802 166.311L967.988 159.706L960.767 159.503L960.581 166.109ZM976.805 166.564L973.755 166.479L974.16 152.036L976.539 152.103L976.208 163.886L976.264 163.888L983.088 152.287L986.139 152.372L985.734 166.815L983.355 166.748L983.686 154.965L983.63 154.963L976.805 166.564ZM1002.24 167.278L999.215 167.193L994.153 159.936L991.824 162.084L991.686 166.982L989.307 166.915L989.712 152.473L992.091 152.539L991.898 159.425L998.697 152.725L1001.89 152.814L995.906 158.333L1002.24 167.278ZM1010.56 152.638C1014.93 152.76 1017.4 155.603 1017.26 160.389C1017.13 165.287 1014.5 168.07 1010.11 167.947C1005.68 167.823 1003.13 164.894 1003.27 160.136C1003.4 155.378 1006.2 152.515 1010.56 152.638ZM1010.45 154.623C1007.65 154.545 1005.83 156.706 1005.73 160.149C1005.63 163.704 1007.28 165.851 1010.19 165.932C1012.99 166.011 1014.73 163.931 1014.83 160.376C1014.92 156.934 1013.25 154.702 1010.45 154.623ZM1030.2 155.71L1022.67 155.499L1022.33 167.842L1019.95 167.775L1020.35 153.333L1030.26 153.611L1030.2 155.71ZM1044.53 173.059L1042.26 172.995L1042.39 168.405L1031.36 168.095L1031.23 172.685L1028.97 172.622L1029.15 165.932L1030.72 165.976C1031.61 164.405 1032.7 160.402 1032.8 156.763L1032.89 153.684L1043.19 153.973L1042.84 166.317L1044.72 166.369L1044.53 173.059ZM1040.46 166.25L1040.75 156.006L1035.15 155.849L1035.12 157.052C1035.02 160.663 1034.01 164.528 1033.18 166.046L1040.46 166.25ZM1059.58 166.982L1059.53 168.83C1059.02 169.012 1058.43 169.079 1057.9 169.064C1056.55 169.026 1055.85 168.25 1055.86 166.878C1054.38 168.433 1052.8 169.089 1050.56 169.026C1047.7 168.946 1045.98 167.329 1046.05 164.81C1046.13 162.235 1047.88 160.772 1051.3 160.448C1054.76 160.125 1055.93 160.241 1055.98 158.282C1056.03 156.743 1054.9 155.871 1052.78 155.811C1050.57 155.749 1049.4 156.529 1049.11 158.65L1046.79 158.584C1046.96 155.508 1049.25 153.751 1052.97 153.856C1054.9 153.91 1056.54 154.46 1057.47 155.383C1058.45 156.391 1058.38 157.873 1058.34 159.161C1058.28 161.316 1058.11 163.44 1058.05 165.595C1058.02 166.659 1058.26 167.03 1058.99 167.05C1059.21 167.056 1059.32 167.031 1059.58 166.982ZM1055.9 161.277C1054.99 161.924 1053.75 161.945 1052.69 162.055C1050.94 162.23 1048.59 162.36 1048.52 164.683C1048.48 166.167 1049.55 167.121 1051.34 167.171C1053.58 167.234 1055.77 165.755 1055.83 163.908L1055.9 161.277ZM1072.2 154.788L1072.14 156.831C1073.31 155.071 1074.96 154.417 1077.08 154.477C1081.11 154.59 1083.58 157.572 1083.45 162.246C1083.32 166.92 1080.71 169.845 1076.77 169.734C1074.64 169.674 1073.18 168.933 1071.99 167.219L1071.78 174.804L1069.4 174.737L1069.96 154.725L1072.2 154.788ZM1076.66 156.454C1073.89 156.376 1072.15 158.456 1072.06 161.955C1071.96 165.453 1073.63 167.629 1076.43 167.708C1079.15 167.784 1080.89 165.676 1080.98 162.205C1081.08 158.707 1079.46 156.532 1076.66 156.454ZM1098.99 168.089L1098.94 169.936C1098.43 170.118 1097.84 170.185 1097.31 170.17C1095.97 170.133 1095.26 169.356 1095.27 167.984C1093.8 169.54 1092.21 170.195 1089.97 170.132C1087.12 170.052 1085.4 168.435 1085.47 165.916C1085.54 163.341 1087.29 161.878 1090.72 161.554C1094.17 161.231 1095.34 161.348 1095.4 159.388C1095.44 157.849 1094.32 156.977 1092.19 156.917C1089.98 156.855 1088.81 157.635 1088.53 159.756L1086.2 159.691C1086.37 156.614 1088.66 154.858 1092.39 154.962C1094.32 155.016 1095.95 155.567 1096.88 156.489C1097.86 157.497 1097.79 158.979 1097.76 160.267C1097.69 162.422 1097.52 164.546 1097.46 166.701C1097.43 167.765 1097.67 168.136 1098.4 168.156C1098.63 168.162 1098.74 168.138 1098.99 168.089ZM1095.31 162.383C1094.4 163.03 1093.17 163.051 1092.1 163.161C1090.36 163.337 1088 163.467 1087.94 165.79C1087.89 167.273 1088.96 168.227 1090.75 168.278C1092.99 168.34 1095.19 166.861 1095.24 165.014L1095.31 162.383ZM1103.56 170.122L1101.18 170.055L1101.59 155.613L1103.97 155.679L1103.8 161.417L1111.03 161.62L1111.19 155.882L1113.57 155.949L1113.16 170.391L1110.78 170.324L1110.97 163.719L1103.75 163.516L1103.56 170.122ZM1129.01 166.326C1128.93 169.041 1127.12 170.783 1124.29 170.703L1116.65 170.489L1117.05 156.047L1119.43 156.113L1119.28 161.627L1124.43 161.772C1127.26 161.851 1129.08 163.583 1129.01 166.326ZM1123.62 163.794L1119.22 163.67L1119.09 168.457L1123.48 168.58C1125.44 168.635 1126.5 167.796 1126.54 166.257C1126.59 164.718 1125.6 163.85 1123.62 163.794ZM1131.25 170.899L1131.65 156.456L1134.03 156.523L1133.69 168.866L1139.65 169.034L1139.99 156.69L1142.37 156.757L1142.03 169.1L1147.99 169.268L1148.33 156.925L1150.71 156.991L1150.31 171.434L1131.25 170.899ZM1166.35 167.318C1165.53 170.628 1163.33 172.275 1159.91 172.179C1155.66 172.06 1153.19 169.19 1153.32 164.487C1153.45 159.813 1156.26 156.727 1160.26 156.839C1165.02 156.973 1166.7 160.801 1166.58 164.972L1166.57 165.308L1155.71 165.003L1155.68 165.17C1155.6 168.249 1157.25 170.144 1160.05 170.222C1162.12 170.281 1163.29 169.417 1164.03 167.253L1166.35 167.318ZM1164.17 163.307C1164.02 160.558 1162.53 158.863 1160.15 158.797C1157.82 158.732 1156.15 160.365 1155.77 163.072L1164.17 163.307ZM1179.08 172.241L1176.7 172.174L1177.11 157.732L1179.49 157.799L1179.33 163.537L1186.55 163.739L1186.71 158.002L1189.09 158.068L1188.68 172.511L1186.3 172.444L1186.49 165.838L1179.27 165.636L1179.08 172.241ZM1204.73 168.395C1203.9 171.705 1201.7 173.352 1198.29 173.256C1194.03 173.137 1191.56 170.267 1191.7 165.564C1191.83 160.89 1194.63 157.804 1198.63 157.916C1203.39 158.05 1205.08 161.878 1204.96 166.049L1204.95 166.385L1194.09 166.08L1194.06 166.247C1193.97 169.326 1195.63 171.221 1198.43 171.3C1200.5 171.358 1201.67 170.494 1202.4 168.33L1204.73 168.395ZM1202.54 164.384C1202.39 161.635 1200.9 159.941 1198.52 159.874C1196.2 159.809 1194.53 161.442 1194.14 164.149L1202.54 164.384ZM1214.55 162.957C1214.88 159.408 1217.87 158.456 1220.78 158.538C1223.75 158.621 1226.18 159.894 1226.11 162.581C1226.06 164.232 1224.88 165.347 1223.7 165.566L1223.69 165.622C1225.03 165.912 1226.46 167.044 1226.39 169.283C1226.31 172.418 1223.32 173.931 1220.27 173.845C1216.49 173.739 1214.22 171.855 1214.14 168.715L1216.55 168.783C1216.63 170.858 1218.17 171.854 1220.3 171.913C1222.56 171.977 1223.89 170.754 1223.93 169.27C1223.97 167.815 1223.13 166.895 1220.92 166.833L1218.93 166.777L1218.98 164.846L1220.58 164.891C1222.26 164.938 1223.65 164.332 1223.7 162.625C1223.72 161.561 1222.66 160.523 1220.7 160.468C1219 160.42 1217.21 161.071 1216.96 163.024L1214.55 162.957ZM1241.92 172.1L1241.86 173.947C1241.36 174.129 1240.77 174.197 1240.23 174.182C1238.89 174.144 1238.18 173.368 1238.19 171.996C1236.72 173.551 1235.13 174.207 1232.9 174.144C1230.04 174.064 1228.32 172.447 1228.39 169.928C1228.46 167.353 1230.21 165.889 1233.64 165.565C1237.09 165.242 1238.27 165.359 1238.32 163.4C1238.37 161.86 1237.24 160.988 1235.12 160.929C1232.9 160.867 1231.73 161.646 1231.45 163.767L1229.13 163.702C1229.3 160.625 1231.59 158.869 1235.31 158.973C1237.24 159.028 1238.88 159.578 1239.81 160.5C1240.79 161.508 1240.72 162.991 1240.68 164.278C1240.62 166.433 1240.45 168.557 1240.39 170.713C1240.36 171.776 1240.6 172.147 1241.33 172.167C1241.55 172.174 1241.66 172.149 1241.92 172.1ZM1238.24 166.395C1237.32 167.041 1236.09 167.063 1235.02 167.173C1233.28 167.348 1230.93 167.478 1230.86 169.801C1230.82 171.284 1231.88 172.239 1233.68 172.289C1235.91 172.352 1238.11 170.873 1238.17 169.026L1238.24 166.395ZM1246.48 174.133L1244.11 174.066L1244.51 159.624L1246.89 159.691L1246.73 165.428L1253.95 165.631L1254.11 159.893L1256.49 159.96L1256.08 174.402L1253.71 174.336L1253.89 167.73L1246.67 167.528L1246.48 174.133ZM1262.71 174.588L1259.66 174.503L1260.06 160.06L1262.44 160.127L1262.11 171.91L1262.17 171.912L1268.99 160.311L1272.04 160.397L1271.64 174.839L1269.26 174.772L1269.59 162.989L1269.53 162.987L1262.71 174.588ZM1290.86 175.378L1288.48 175.311L1288.8 163.92L1288.71 163.918L1284.11 175.189L1281.93 175.128L1277.96 163.616L1277.88 163.614L1277.56 175.005L1275.18 174.938L1275.59 160.496L1279 160.592L1283.07 172.415L1283.12 172.416L1287.85 160.84L1291.26 160.936L1290.86 175.378ZM1307.21 173.933L1307.16 175.78C1306.65 175.962 1306.06 176.029 1305.53 176.014C1304.19 175.977 1303.48 175.2 1303.49 173.828C1302.02 175.383 1300.43 176.039 1298.19 175.976C1295.34 175.896 1293.62 174.279 1293.69 171.76C1293.76 169.185 1295.51 167.722 1298.94 167.398C1302.39 167.075 1303.57 167.192 1303.62 165.232C1303.66 163.693 1302.54 162.821 1300.41 162.761C1298.2 162.699 1297.03 163.479 1296.75 165.6L1294.43 165.535C1294.6 162.458 1296.89 160.702 1300.61 160.806C1302.54 160.86 1304.18 161.41 1305.1 162.333C1306.08 163.341 1306.01 164.823 1305.98 166.111C1305.92 168.266 1305.75 170.39 1305.69 172.545C1305.66 173.609 1305.9 173.98 1306.62 174C1306.85 174.006 1306.96 173.982 1307.21 173.933ZM1303.54 168.227C1302.62 168.874 1301.39 168.895 1300.32 169.005C1298.58 169.181 1296.22 169.31 1296.16 171.634C1296.12 173.117 1297.18 174.071 1298.97 174.122C1301.21 174.184 1303.41 172.705 1303.46 170.858L1303.54 168.227ZM1321.84 161.794L1321.44 176.237L1319.06 176.17L1319.41 163.827L1314.26 163.682L1313.88 170.058C1313.61 174.784 1311.72 176.272 1309.7 176.215C1309 176.196 1308.31 176.008 1308 175.86L1308.06 173.928C1308.36 174.105 1309 174.151 1309.31 174.16C1310.26 174.186 1311.35 173.376 1311.52 170.244L1312.02 161.519L1321.84 161.794ZM1337.53 171.422C1337.01 174.853 1334.66 177.028 1331.07 176.927C1326.6 176.802 1324.3 173.684 1324.43 169.29C1324.56 164.476 1327.33 161.528 1331.59 161.648C1335.11 161.747 1337.27 163.656 1337.57 166.942L1335.11 166.872C1334.75 164.817 1333.52 163.691 1331.56 163.636C1328.82 163.559 1327.02 165.693 1326.92 169.164C1326.82 172.69 1328.39 174.863 1331.07 174.938C1333.23 174.999 1334.69 173.723 1335.12 171.355L1337.53 171.422ZM1351.41 177.078L1349.03 177.011L1349.2 171.105L1346.03 171.017L1341.3 176.794L1338.14 176.705L1343.29 170.856C1341.26 170.49 1339.76 168.936 1339.83 166.557C1339.9 163.842 1341.68 162.351 1344.48 162.43L1351.81 162.635L1351.41 177.078ZM1349.38 164.668L1345.18 164.55C1343.22 164.495 1342.3 165.17 1342.26 166.625C1342.22 168.108 1343.07 168.833 1345.06 168.888L1349.25 169.006L1349.38 164.668Z" fill="#131313"/>
<rect x="172.806" y="671" width="274.64" height="80" rx="25" transform="rotate(2.00951 172.806 671)" fill="white"/>
<path d="M210.365 718.275C209.848 721.706 207.49 723.881 203.908 723.78C199.43 723.655 197.136 720.537 197.259 716.143C197.395 711.329 200.166 708.381 204.421 708.501C207.947 708.6 210.107 710.509 210.407 713.795L207.944 713.726C207.581 711.671 206.352 710.544 204.393 710.489C201.65 710.412 199.853 712.546 199.756 716.017C199.657 719.543 201.221 721.716 203.908 721.792C206.063 721.852 207.527 720.577 207.958 718.208L210.365 718.275ZM215.468 709.231L215.41 711.274C216.58 709.514 218.223 708.86 220.35 708.92C224.381 709.033 226.846 712.015 226.715 716.689C226.584 721.364 223.981 724.288 220.034 724.177C217.907 724.117 216.443 723.376 215.259 721.662L215.046 729.247L212.667 729.18L213.229 709.168L215.468 709.231ZM219.931 710.897C217.16 710.819 215.421 712.899 215.323 716.398C215.224 719.896 216.9 722.072 219.699 722.151C222.414 722.227 224.154 720.119 224.251 716.648C224.349 713.15 222.73 710.975 219.931 710.897ZM241.885 719.86C241.064 723.171 238.861 724.817 235.447 724.722C231.192 724.602 228.724 721.732 228.856 717.03C228.987 712.355 231.791 709.269 235.793 709.381C240.551 709.515 242.236 713.344 242.119 717.514L242.11 717.85L231.25 717.545L231.218 717.712C231.131 720.791 232.787 722.686 235.586 722.765C237.657 722.823 238.829 721.959 239.562 719.795L241.885 719.86ZM239.701 715.849C239.554 713.1 238.061 711.406 235.682 711.339C233.359 711.274 231.689 712.907 231.304 715.614L239.701 715.849ZM257.821 729.467L255.554 729.404L255.683 724.813L244.655 724.504L244.526 729.094L242.259 729.03L242.447 722.341L244.014 722.385C244.899 720.813 245.992 716.81 246.094 713.172L246.18 710.093L256.48 710.382L256.134 722.725L258.009 722.778L257.821 729.467ZM253.755 722.658L254.042 712.414L248.444 712.257L248.41 713.461C248.309 717.071 247.304 720.937 246.477 722.454L253.755 722.658ZM262.406 725.002L260.027 724.935L260.433 710.493L262.812 710.56L262.651 716.297L269.872 716.5L270.033 710.762L272.412 710.829L272.007 725.271L269.627 725.205L269.813 718.599L262.592 718.397L262.406 725.002ZM278.631 725.457L275.58 725.372L275.985 710.929L278.364 710.996L278.033 722.78L278.089 722.781L284.914 711.18L287.964 711.266L287.559 725.708L285.18 725.641L285.511 713.858L285.455 713.856L278.631 725.457ZM301.907 706.167C301.481 708.396 300.036 709.98 297.601 709.911C295.278 709.846 293.672 708.177 293.455 705.93L294.882 705.97C295.236 707.324 296.192 708.191 297.62 708.231C299.075 708.272 299.994 707.458 300.48 706.127L301.907 706.167ZM294.183 725.894L291.132 725.808L291.538 711.366L293.917 711.433L293.586 723.216L293.642 723.218L300.466 711.617L303.517 711.702L303.111 726.144L300.732 726.078L301.063 714.294L301.007 714.293L294.183 725.894ZM326.831 712.356L320.188 728.472C319.347 730.494 318.482 732.402 315.907 732.33C315.291 732.313 314.734 732.185 314.15 732.028L314.21 729.901C314.959 730.146 315.321 730.241 315.741 730.252C316.524 730.274 317.155 729.76 317.454 729.096L318.647 726.496L313.313 711.977L315.999 712.052L319.959 723.676L324.34 712.287L326.831 712.356ZM331.113 712.477L331.056 714.52C332.226 712.76 333.869 712.106 335.996 712.166C340.027 712.279 342.492 715.261 342.361 719.935C342.229 724.609 339.626 727.533 335.68 727.423C333.553 727.363 332.089 726.622 330.905 724.908L330.692 732.493L328.313 732.426L328.874 712.414L331.113 712.477ZM335.577 714.143C332.806 714.065 331.067 716.145 330.968 719.643C330.87 723.142 332.546 725.318 335.345 725.396C338.06 725.473 339.799 723.365 339.897 719.894C339.995 716.395 338.375 714.221 335.577 714.143ZM351.803 712.637C356.169 712.76 358.638 715.602 358.504 720.388C358.367 725.286 355.739 728.07 351.345 727.946C346.923 727.822 344.372 724.894 344.506 720.135C344.639 715.377 347.437 712.515 351.803 712.637ZM351.691 714.623C348.892 714.544 347.067 716.706 346.97 720.149C346.87 723.703 348.519 725.85 351.43 725.932C354.229 726.01 355.968 723.93 356.067 720.376C356.164 716.933 354.49 714.701 351.691 714.623ZM361.076 727.771L361.481 713.329L368.171 713.517C370.69 713.587 373.109 714.216 373.027 717.154C372.983 718.694 372.173 719.623 370.812 720.201L370.811 720.229C372.481 720.612 373.509 721.93 373.455 723.861C373.385 726.324 371.516 728.064 368.941 727.992L361.076 727.771ZM367.755 719.331C369.799 719.389 370.518 718.709 370.553 717.477C370.586 716.274 369.961 715.612 367.861 715.553L363.747 715.437L363.641 719.216L367.755 719.331ZM363.584 721.231L363.456 725.793L368.55 725.936C370.062 725.979 370.959 724.967 370.997 723.596C371.034 722.28 370.218 721.417 368.259 721.362L363.584 721.231ZM388.636 723.979C387.815 727.289 385.612 728.936 382.197 728.84C377.943 728.721 375.475 725.85 375.607 721.148C375.738 716.474 378.541 713.388 382.544 713.5C387.302 713.633 388.987 717.462 388.87 721.633L388.861 721.968L378.001 721.664L377.968 721.831C377.882 724.91 379.537 726.805 382.336 726.883C384.408 726.942 385.58 726.078 386.313 723.914L388.636 723.979ZM386.452 719.968C386.305 717.219 384.812 715.524 382.433 715.458C380.11 715.392 378.439 717.026 378.055 719.732L386.452 719.968ZM393.577 728.683L391.198 728.617L391.604 714.174L393.983 714.241L393.822 719.979L401.043 720.182L401.204 714.444L403.583 714.511L403.178 728.953L400.798 728.886L400.984 722.281L393.763 722.078L393.577 728.683ZM419.024 724.888C418.948 727.603 417.135 729.345 414.308 729.265L406.667 729.051L407.072 714.609L409.451 714.675L409.296 720.189L414.446 720.334C417.273 720.413 419.101 722.145 419.024 724.888ZM413.633 722.356L409.239 722.232L409.105 727.018L413.499 727.142C415.458 727.197 416.518 726.358 416.561 724.819C416.605 723.279 415.621 722.411 413.633 722.356Z" fill="#131313"/>
<rect x="798.51" y="1195" width="605.407" height="100.096" rx="25" transform="rotate(2.00951 798.51 1195)" fill="white"/>
<path d="M901.431 1228.74L896.206 1235.26L901.614 1243.2L898.563 1243.11L894.671 1237.06L890.502 1242.88L887.619 1242.8L893.263 1235.34L888.444 1228.37L891.467 1228.46L894.827 1233.51L898.548 1228.66L901.431 1228.74ZM909.896 1228.56C914.262 1228.68 916.731 1231.52 916.597 1236.31C916.459 1241.2 913.832 1243.99 909.438 1243.86C905.016 1243.74 902.465 1240.81 902.599 1236.05C902.732 1231.3 905.529 1228.43 909.896 1228.56ZM909.784 1230.54C906.985 1230.46 905.16 1232.62 905.063 1236.07C904.963 1239.62 906.612 1241.77 909.523 1241.85C912.322 1241.93 914.061 1239.85 914.16 1236.29C914.257 1232.85 912.583 1230.62 909.784 1230.54ZM930.393 1244L928.013 1243.94L928.193 1237.56C927.685 1237.68 925.152 1238.11 923.696 1238.07C920.813 1237.99 919.032 1236.6 919.11 1233.8L919.238 1229.24L921.617 1229.3L921.5 1233.47C921.449 1235.32 922.437 1236.02 924.201 1236.07C925.6 1236.11 927.713 1235.69 928.249 1235.54L928.419 1229.5L930.798 1229.56L930.393 1244ZM946.456 1239.89C945.635 1243.2 943.432 1244.85 940.017 1244.75C935.763 1244.63 933.294 1241.76 933.426 1237.06C933.557 1232.38 936.361 1229.3 940.363 1229.41C945.122 1229.54 946.807 1233.37 946.69 1237.54L946.68 1237.88L935.821 1237.57L935.788 1237.74C935.702 1240.82 937.357 1242.72 940.156 1242.79C942.227 1242.85 943.4 1241.99 944.133 1239.82L946.456 1239.89ZM944.272 1235.88C944.125 1233.13 942.632 1231.43 940.253 1231.37C937.929 1231.3 936.259 1232.94 935.875 1235.64L944.272 1235.88ZM959.928 1232.48L954.75 1232.33L954.404 1244.68L952.024 1244.61L952.371 1232.27L947.193 1232.12L947.252 1230.02L959.987 1230.38L959.928 1232.48ZM968.748 1234.8C969.072 1231.25 972.068 1230.3 974.979 1230.38C977.945 1230.47 980.375 1231.74 980.299 1234.42C980.253 1236.08 979.073 1237.19 977.891 1237.41L977.889 1237.47C979.225 1237.76 980.65 1238.89 980.587 1241.13C980.499 1244.26 977.516 1245.77 974.465 1245.69C970.686 1245.58 968.414 1243.7 968.334 1240.56L970.742 1240.63C970.823 1242.7 972.364 1243.7 974.491 1243.76C976.758 1243.82 978.081 1242.6 978.123 1241.11C978.164 1239.66 977.321 1238.74 975.11 1238.68L973.123 1238.62L973.177 1236.69L974.772 1236.73C976.452 1236.78 977.841 1236.18 977.889 1234.47C977.919 1233.41 976.856 1232.37 974.896 1232.31C973.189 1232.26 971.406 1232.91 971.155 1234.87L968.748 1234.8ZM983.21 1245.49L983.615 1231.04L990.305 1231.23C992.824 1231.3 995.243 1231.93 995.161 1234.87C995.117 1236.41 994.307 1237.34 992.946 1237.92L992.946 1237.94C994.615 1238.33 995.643 1239.65 995.589 1241.58C995.52 1244.04 993.65 1245.78 991.075 1245.71L983.21 1245.49ZM989.89 1237.05C991.933 1237.1 992.652 1236.42 992.687 1235.19C992.72 1233.99 992.095 1233.33 989.996 1233.27L985.881 1233.15L985.775 1236.93L989.89 1237.05ZM985.719 1238.95L985.591 1243.51L990.685 1243.65C992.196 1243.69 993.093 1242.68 993.131 1241.31C993.168 1240 992.352 1239.13 990.393 1239.08L985.719 1238.95ZM1010.66 1231.8L1004.01 1247.92C1003.17 1249.94 1002.31 1251.85 999.731 1251.78C999.115 1251.76 998.559 1251.63 997.975 1251.48L998.035 1249.35C998.784 1249.59 999.146 1249.69 999.565 1249.7C1000.35 1249.72 1000.98 1249.21 1001.28 1248.54L1002.47 1245.94L997.137 1231.42L999.824 1231.5L1003.78 1243.12L1008.16 1231.73L1010.66 1231.8ZM1023.46 1246.62L1021.08 1246.55L1021.26 1240.17C1020.75 1240.29 1018.22 1240.73 1016.77 1240.69C1013.88 1240.61 1012.1 1239.21 1012.18 1236.41L1012.31 1231.85L1014.69 1231.92L1014.57 1236.09C1014.52 1237.93 1015.51 1238.63 1017.27 1238.68C1018.67 1238.72 1020.78 1238.31 1021.32 1238.15L1021.49 1232.11L1023.87 1232.17L1023.46 1246.62ZM1039.9 1245.17L1039.85 1247.02C1039.34 1247.2 1038.75 1247.27 1038.21 1247.25C1036.87 1247.22 1036.16 1246.44 1036.18 1245.07C1034.7 1246.62 1033.12 1247.28 1030.88 1247.22C1028.02 1247.14 1026.3 1245.52 1026.37 1243C1026.45 1240.43 1028.2 1238.96 1031.62 1238.64C1035.08 1238.31 1036.25 1238.43 1036.3 1236.47C1036.35 1234.93 1035.22 1234.06 1033.1 1234C1030.89 1233.94 1029.72 1234.72 1029.43 1236.84L1027.11 1236.77C1027.28 1233.7 1029.57 1231.94 1033.29 1232.05C1035.22 1232.1 1036.86 1232.65 1037.79 1233.57C1038.77 1234.58 1038.7 1236.06 1038.66 1237.35C1038.6 1239.51 1038.43 1241.63 1038.37 1243.79C1038.34 1244.85 1038.58 1245.22 1039.31 1245.24C1039.53 1245.25 1039.64 1245.22 1039.9 1245.17ZM1036.22 1239.47C1035.31 1240.11 1034.07 1240.14 1033.01 1240.25C1031.26 1240.42 1028.91 1240.55 1028.84 1242.87C1028.8 1244.36 1029.87 1245.31 1031.66 1245.36C1033.9 1245.42 1036.09 1243.95 1036.15 1242.1L1036.22 1239.47ZM1053.49 1235.11L1048.31 1234.96L1047.96 1247.3L1045.59 1247.24L1045.93 1234.89L1040.75 1234.75L1040.81 1232.65L1053.55 1233.01L1053.49 1235.11ZM1067.32 1243.34C1067.24 1246.05 1065.43 1247.79 1062.6 1247.71L1054.96 1247.5L1055.36 1233.06L1057.74 1233.12L1057.59 1238.64L1062.74 1238.78C1065.57 1238.86 1067.39 1240.59 1067.32 1243.34ZM1061.93 1240.81L1057.53 1240.68L1057.4 1245.47L1061.79 1245.59C1063.75 1245.65 1064.81 1244.81 1064.85 1243.27C1064.9 1241.73 1063.91 1240.86 1061.93 1240.81ZM1079.15 1231.71C1080.49 1229.76 1082.2 1228.94 1084.95 1228.82C1086.77 1228.73 1087.89 1228.73 1088.3 1228.02L1090.68 1228.08C1090.07 1231.03 1087.07 1230.89 1084.55 1231.02C1081.38 1231.16 1079.69 1233.54 1079.17 1236.95L1079.26 1236.95C1080.12 1235.07 1082.01 1233.75 1084.41 1233.82C1088.47 1233.93 1090.92 1236.69 1090.78 1241.39C1090.65 1246.21 1088.08 1248.91 1083.8 1248.79C1080.41 1248.69 1077.75 1246.57 1077.28 1242.58C1077.19 1241.79 1077.16 1240.9 1077.18 1239.94C1077.26 1237.17 1077.69 1233.82 1079.15 1231.71ZM1079.59 1241.16C1079.5 1244.41 1081.08 1246.69 1083.88 1246.77C1086.54 1246.85 1088.25 1244.88 1088.35 1241.38C1088.44 1237.99 1086.82 1235.87 1084.13 1235.8C1081.45 1235.72 1079.68 1237.77 1079.59 1241.16ZM1105.89 1244.36C1105.07 1247.67 1102.86 1249.32 1099.45 1249.23C1095.2 1249.11 1092.73 1246.24 1092.86 1241.53C1092.99 1236.86 1095.79 1233.77 1099.8 1233.88C1104.55 1234.02 1106.24 1237.85 1106.12 1242.02L1106.11 1242.35L1095.25 1242.05L1095.22 1242.22C1095.13 1245.29 1096.79 1247.19 1099.59 1247.27C1101.66 1247.33 1102.83 1246.46 1103.57 1244.3L1105.89 1244.36ZM1103.7 1240.35C1103.56 1237.6 1102.06 1235.91 1099.69 1235.84C1097.36 1235.78 1095.69 1237.41 1095.31 1240.12L1103.7 1240.35ZM1118.76 1236.94L1111.23 1236.73L1110.89 1249.07L1108.51 1249L1108.91 1234.56L1118.82 1234.84L1118.76 1236.94ZM1130.87 1235.18L1130.46 1249.62L1128.08 1249.55L1128.43 1237.21L1123.28 1237.06L1122.91 1243.44C1122.63 1248.17 1120.74 1249.65 1118.73 1249.6C1118.03 1249.58 1117.33 1249.39 1117.03 1249.24L1117.08 1247.31C1117.39 1247.49 1118.03 1247.53 1118.34 1247.54C1119.29 1247.57 1120.38 1246.76 1120.55 1243.63L1121.04 1234.9L1130.87 1235.18ZM1140.72 1235.03C1145.09 1235.16 1147.56 1238 1147.42 1242.78C1147.29 1247.68 1144.66 1250.47 1140.27 1250.34C1135.84 1250.22 1133.29 1247.29 1133.43 1242.53C1133.56 1237.77 1136.36 1234.91 1140.72 1235.03ZM1140.61 1237.02C1137.81 1236.94 1135.99 1239.1 1135.89 1242.54C1135.79 1246.1 1137.44 1248.25 1140.35 1248.33C1143.15 1248.41 1144.89 1246.33 1144.99 1242.77C1145.08 1239.33 1143.41 1237.1 1140.61 1237.02ZM1153.78 1247.16L1153.72 1249.07C1153.65 1251.56 1153.26 1253.68 1150.47 1254.33L1150.51 1252.93C1151.58 1252.59 1152.05 1251.77 1152.12 1250.23L1150.58 1250.18L1150.67 1247.08L1153.78 1247.16ZM1168.28 1236.23L1168.22 1238.27C1169.39 1236.51 1171.03 1235.86 1173.16 1235.92C1177.19 1236.03 1179.65 1239.01 1179.52 1243.69C1179.39 1248.36 1176.79 1251.28 1172.84 1251.17C1170.72 1251.11 1169.25 1250.37 1168.07 1248.66L1167.85 1256.24L1165.48 1256.18L1166.04 1236.16L1168.28 1236.23ZM1172.74 1237.89C1169.97 1237.82 1168.23 1239.9 1168.13 1243.39C1168.03 1246.89 1169.71 1249.07 1172.51 1249.15C1175.22 1249.22 1176.96 1247.11 1177.06 1243.64C1177.16 1240.15 1175.54 1237.97 1172.74 1237.89ZM1185.27 1251.16L1182.22 1251.07L1182.63 1236.63L1185.01 1236.7L1184.68 1248.48L1184.73 1248.48L1191.56 1236.88L1194.61 1236.97L1194.2 1251.41L1191.82 1251.34L1192.15 1239.56L1192.1 1239.56L1185.27 1251.16ZM1209.18 1239.48L1204 1239.33L1203.65 1251.67L1201.27 1251.61L1201.62 1239.26L1196.44 1239.12L1196.5 1237.02L1209.24 1237.38L1209.18 1239.48ZM1226.38 1252.31L1224 1252.24L1224.32 1240.85L1224.23 1240.85L1219.63 1252.12L1217.45 1252.06L1213.49 1240.55L1213.4 1240.55L1213.08 1251.94L1210.7 1251.87L1211.11 1237.43L1214.52 1237.52L1218.59 1249.35L1218.65 1249.35L1223.37 1237.77L1226.78 1237.87L1226.38 1252.31ZM1232.94 1252.5L1229.89 1252.41L1230.3 1237.97L1232.68 1238.03L1232.35 1249.82L1232.4 1249.82L1239.23 1238.22L1242.28 1238.3L1241.87 1252.75L1239.49 1252.68L1239.82 1240.9L1239.77 1240.89L1232.94 1252.5ZM1256.61 1253.16L1254.23 1253.09L1254.41 1246.71C1253.9 1246.84 1251.37 1247.27 1249.92 1247.23C1247.03 1247.15 1245.25 1245.75 1245.33 1242.96L1245.46 1238.39L1247.84 1238.46L1247.72 1242.63C1247.67 1244.48 1248.66 1245.18 1250.42 1245.23C1251.82 1245.27 1253.93 1244.85 1254.47 1244.7L1254.64 1238.65L1257.02 1238.72L1256.61 1253.16ZM1262.58 1253.33L1260.2 1253.26L1260.61 1238.82L1262.99 1238.89L1262.83 1244.62L1270.05 1244.83L1270.21 1239.09L1272.59 1239.15L1272.18 1253.6L1269.8 1253.53L1269.99 1246.92L1262.77 1246.72L1262.58 1253.33ZM1282.5 1239.01C1286.87 1239.14 1289.33 1241.98 1289.2 1246.76C1289.06 1251.66 1286.44 1254.45 1282.04 1254.32C1277.62 1254.2 1275.07 1251.27 1275.2 1246.51C1275.34 1241.75 1278.13 1238.89 1282.5 1239.01ZM1282.39 1241C1279.59 1240.92 1277.76 1243.08 1277.67 1246.52C1277.57 1250.08 1279.22 1252.23 1282.13 1252.31C1284.92 1252.39 1286.66 1250.31 1286.76 1246.75C1286.86 1243.31 1285.19 1241.08 1282.39 1241ZM1302.67 1254.45L1299.62 1254.37L1300.02 1239.92L1302.4 1239.99L1302.07 1251.77L1302.13 1251.78L1308.95 1240.18L1312 1240.26L1311.6 1254.7L1309.22 1254.64L1309.55 1242.85L1309.49 1242.85L1302.67 1254.45ZM1032.45 1270.31C1031.63 1273.62 1029.43 1275.27 1026.01 1275.18C1021.76 1275.06 1019.29 1272.19 1019.42 1267.48C1019.55 1262.81 1022.36 1259.72 1026.36 1259.83C1031.12 1259.97 1032.8 1263.8 1032.69 1267.97L1032.68 1268.3L1021.82 1268L1021.78 1268.17C1021.7 1271.24 1023.35 1273.14 1026.15 1273.22C1028.22 1273.28 1029.4 1272.41 1030.13 1270.25L1032.45 1270.31ZM1030.27 1266.3C1030.12 1263.55 1028.63 1261.86 1026.25 1261.79C1023.93 1261.73 1022.26 1263.36 1021.87 1266.07L1030.27 1266.3ZM1047.59 1270.04C1047.07 1273.47 1044.71 1275.64 1041.13 1275.54C1036.65 1275.42 1034.36 1272.3 1034.48 1267.91C1034.62 1263.09 1037.39 1260.14 1041.65 1260.26C1045.17 1260.36 1047.33 1262.27 1047.63 1265.56L1045.17 1265.49C1044.81 1263.43 1043.58 1262.31 1041.62 1262.25C1038.87 1262.17 1037.08 1264.31 1036.98 1267.78C1036.88 1271.31 1038.45 1273.48 1041.13 1273.55C1043.29 1273.62 1044.75 1272.34 1045.18 1269.97L1047.59 1270.04ZM1061.45 1263.34L1056.27 1263.2L1055.93 1275.54L1053.55 1275.47L1053.89 1263.13L1048.71 1262.98L1048.77 1260.88L1061.51 1261.24L1061.45 1263.34ZM1074.98 1271.51C1074.16 1274.82 1071.96 1276.46 1068.54 1276.37C1064.29 1276.25 1061.82 1273.38 1061.95 1268.68C1062.08 1264 1064.89 1260.92 1068.89 1261.03C1073.65 1261.16 1075.33 1264.99 1075.22 1269.16L1075.21 1269.5L1064.35 1269.19L1064.31 1269.36C1064.23 1272.44 1065.88 1274.33 1068.68 1274.41C1070.75 1274.47 1071.93 1273.61 1072.66 1271.44L1074.98 1271.51ZM1072.8 1267.5C1072.65 1264.75 1071.16 1263.05 1068.78 1262.99C1066.46 1262.92 1064.79 1264.55 1064.4 1267.26L1072.8 1267.5ZM1090.12 1271.23C1089.6 1274.66 1087.25 1276.84 1083.66 1276.74C1079.18 1276.61 1076.89 1273.49 1077.01 1269.1C1077.15 1264.29 1079.92 1261.34 1084.18 1261.46C1087.7 1261.56 1089.86 1263.47 1090.16 1266.75L1087.7 1266.68C1087.34 1264.63 1086.11 1263.5 1084.15 1263.45C1081.4 1263.37 1079.61 1265.5 1079.51 1268.97C1079.41 1272.5 1080.98 1274.67 1083.66 1274.75C1085.82 1274.81 1087.28 1273.53 1087.71 1271.16L1090.12 1271.23ZM1103.98 1264.53L1098.8 1264.39L1098.46 1276.73L1096.08 1276.67L1096.42 1264.32L1091.24 1264.18L1091.3 1262.08L1104.04 1262.44L1103.98 1264.53ZM1105.48 1276.93L1105.88 1262.49L1112.57 1262.67C1115.09 1262.75 1117.51 1263.37 1117.43 1266.31C1117.39 1267.85 1116.57 1268.78 1115.21 1269.36L1115.21 1269.39C1116.88 1269.77 1117.91 1271.09 1117.86 1273.02C1117.79 1275.48 1115.92 1277.22 1113.34 1277.15L1105.48 1276.93ZM1112.16 1268.49C1114.2 1268.55 1114.92 1267.87 1114.95 1266.64C1114.99 1265.43 1114.36 1264.77 1112.26 1264.71L1108.15 1264.6L1108.04 1268.37L1112.16 1268.49ZM1107.99 1270.39L1107.86 1274.95L1112.95 1275.09C1114.46 1275.14 1115.36 1274.13 1115.4 1272.75C1115.44 1271.44 1114.62 1270.58 1112.66 1270.52L1107.99 1270.39ZM1133.04 1273.14C1132.22 1276.45 1130.01 1278.09 1126.6 1278C1122.34 1277.88 1119.88 1275.01 1120.01 1270.31C1120.14 1265.63 1122.94 1262.55 1126.95 1262.66C1131.7 1262.79 1133.39 1266.62 1133.27 1270.79L1133.26 1271.13L1122.4 1270.82L1122.37 1270.99C1122.28 1274.07 1123.94 1275.96 1126.74 1276.04C1128.81 1276.1 1129.98 1275.24 1130.71 1273.07L1133.04 1273.14ZM1130.85 1269.13C1130.71 1266.38 1129.21 1264.68 1126.83 1264.62C1124.51 1264.55 1122.84 1266.18 1122.46 1268.89L1130.85 1269.13ZM1137.98 1277.84L1135.6 1277.77L1136.01 1263.33L1138.38 1263.4L1138.22 1269.14L1145.44 1269.34L1145.61 1263.6L1147.98 1263.67L1147.58 1278.11L1145.2 1278.04L1145.39 1271.44L1138.16 1271.24L1137.98 1277.84ZM1153.53 1278.28L1151.15 1278.21L1151.56 1263.77L1153.94 1263.84L1153.78 1269.57L1161 1269.78L1161.16 1264.04L1163.54 1264.11L1163.13 1278.55L1160.75 1278.48L1160.94 1271.88L1153.72 1271.67L1153.53 1278.28ZM1173.45 1263.96C1177.81 1264.09 1180.28 1266.93 1180.15 1271.71C1180.01 1276.61 1177.38 1279.4 1172.99 1279.27C1168.57 1279.15 1166.02 1276.22 1166.15 1271.46C1166.28 1266.7 1169.08 1263.84 1173.45 1263.96ZM1173.34 1265.95C1170.54 1265.87 1168.71 1268.03 1168.61 1271.47C1168.52 1275.03 1170.16 1277.18 1173.07 1277.26C1175.87 1277.34 1177.61 1275.26 1177.71 1271.7C1177.81 1268.26 1176.13 1266.03 1173.34 1265.95Z" fill="#131313"/>
<rect x="82" y="222.195" width="312.564" height="80" rx="25" transform="rotate(-0.909471 82 222.195)" fill="white"/>
<path d="M114.457 271.52L112.078 271.588L111.662 257.146L114.041 257.078L114.206 262.815L121.427 262.608L121.262 256.87L123.641 256.801L124.057 271.244L121.678 271.312L121.488 264.707L114.267 264.914L114.457 271.52ZM140.366 268.869L140.419 270.717C139.921 270.927 139.336 271.028 138.804 271.043C137.46 271.082 136.711 270.347 136.644 268.977C135.262 270.613 133.715 271.358 131.476 271.422C128.621 271.504 126.813 269.988 126.74 267.469C126.666 264.894 128.33 263.333 131.732 262.815C135.163 262.296 136.341 262.347 136.284 260.387C136.24 258.848 135.068 258.041 132.941 258.103C130.73 258.166 129.606 259.011 129.443 261.144L127.12 261.211C127.116 258.13 129.302 256.246 133.025 256.139C134.956 256.084 136.622 256.54 137.599 257.408C138.635 258.359 138.65 259.843 138.687 261.131C138.749 263.286 138.698 265.416 138.76 267.571C138.791 268.635 139.053 268.991 139.781 268.97C140.005 268.964 140.116 268.933 140.366 268.869ZM136.371 263.382C135.494 264.08 134.264 264.171 133.205 264.342C131.476 264.615 129.131 264.879 129.197 267.202C129.24 268.685 130.358 269.578 132.149 269.526C134.389 269.462 136.499 267.86 136.446 266.013L136.371 263.382ZM153.83 270.387L151.451 270.455L151.268 264.074C150.768 264.228 148.263 264.805 146.808 264.846C143.925 264.929 142.067 263.638 141.987 260.84L141.855 256.277L144.235 256.209L144.355 260.379C144.408 262.226 145.435 262.869 147.198 262.818C148.597 262.778 150.683 262.242 151.21 262.059L151.036 256.013L153.415 255.945L153.83 270.387ZM170.158 268.012L170.212 269.859C169.713 270.07 169.128 270.171 168.596 270.186C167.253 270.225 166.503 269.49 166.436 268.119C165.054 269.756 163.507 270.501 161.268 270.565C158.413 270.647 156.605 269.13 156.532 266.612C156.458 264.037 158.122 262.476 161.525 261.958C164.955 261.439 166.133 261.489 166.077 259.53C166.032 257.991 164.861 257.184 162.734 257.245C160.523 257.309 159.398 258.154 159.236 260.287L156.913 260.354C156.908 257.273 159.095 255.389 162.817 255.282C164.748 255.226 166.414 255.683 167.392 256.551C168.427 257.502 168.442 258.986 168.479 260.273C168.541 262.428 168.49 264.559 168.552 266.714C168.583 267.777 168.845 268.134 169.573 268.113C169.797 268.107 169.908 268.075 170.158 268.012ZM166.163 262.525C165.287 263.222 164.057 263.314 162.997 263.484C161.268 263.758 158.923 264.022 158.99 266.345C159.032 267.828 160.151 268.72 161.942 268.669C164.181 268.604 166.292 267.003 166.239 265.156L166.163 262.525ZM184.075 255.063L184.49 269.505L182.111 269.573L181.756 257.23L176.606 257.378L176.594 263.765C176.59 268.499 174.787 270.092 172.772 270.15C172.072 270.17 171.368 270.022 171.056 269.891L171 267.96C171.313 268.119 171.957 268.128 172.265 268.12C173.217 268.092 174.256 267.222 174.25 264.085L174.251 255.345L184.075 255.063ZM200.025 264.548C200.103 267.263 198.391 269.105 195.564 269.186L187.923 269.406L187.508 254.964L189.887 254.895L190.046 260.409L195.195 260.261C198.022 260.179 199.946 261.805 200.025 264.548ZM194.499 262.326L190.104 262.452L190.242 267.238L194.636 267.112C196.595 267.055 197.606 266.158 197.562 264.619C197.517 263.079 196.486 262.269 194.499 262.326ZM204.9 268.917L202.521 268.986L202.105 254.544L204.484 254.475L204.649 260.213L211.87 260.005L211.705 254.267L214.084 254.199L214.5 268.641L212.121 268.71L211.931 262.104L204.71 262.312L204.9 268.917ZM231.428 253.7L233.807 253.632L234.222 268.074L231.843 268.142L231.428 253.7ZM229.419 263.702C229.497 266.417 227.785 268.259 224.958 268.34L217.989 268.541L217.574 254.099L219.953 254.03L220.111 259.544L224.589 259.415C227.416 259.334 229.34 260.959 229.419 263.702ZM223.892 261.48L220.17 261.587L220.308 266.373L224.03 266.266C225.989 266.21 227 265.312 226.956 263.773C226.911 262.233 225.88 261.423 223.892 261.48ZM247.422 247.749C247.123 249.999 245.77 251.663 243.335 251.733C241.012 251.8 239.314 250.224 238.97 247.993L240.397 247.952C240.828 249.284 241.831 250.095 243.259 250.054C244.714 250.012 245.586 249.147 245.995 247.791L247.422 247.749ZM240.831 267.883L237.78 267.971L237.364 253.529L239.743 253.461L240.082 265.244L240.138 265.242L246.293 253.272L249.343 253.184L249.759 267.626L247.38 267.695L247.041 255.912L246.985 255.913L240.831 267.883ZM272.657 252.514L266.94 268.981C266.216 271.047 265.459 273.001 262.885 273.075C262.269 273.093 261.706 272.997 261.114 272.874L261.053 270.747C261.815 270.949 262.181 271.023 262.601 271.011C263.385 270.988 263.985 270.438 264.246 269.759L265.29 267.096L259.139 252.903L261.826 252.825L266.439 264.205L270.166 252.585L272.657 252.514ZM276.939 252.39L276.998 254.434C278.066 252.61 279.669 251.864 281.796 251.802C285.827 251.686 288.458 254.524 288.592 259.198C288.727 263.872 286.294 266.939 282.347 267.053C280.22 267.114 278.717 266.457 277.437 264.813L277.655 272.398L275.276 272.467L274.7 252.455L276.939 252.39ZM281.49 253.8C278.719 253.88 277.101 256.055 277.202 259.554C277.302 263.052 279.099 265.13 281.898 265.049C284.612 264.971 286.23 262.767 286.13 259.297C286.029 255.798 284.289 253.72 281.49 253.8ZM297.604 251.376C301.971 251.25 304.597 253.948 304.735 258.734C304.876 263.632 302.411 266.56 298.017 266.686C293.595 266.813 290.882 264.034 290.745 259.276C290.608 254.518 293.238 251.501 297.604 251.376ZM297.606 253.364C294.807 253.445 293.107 255.707 293.206 259.149C293.308 262.704 295.076 264.754 297.987 264.67C300.786 264.59 302.404 262.414 302.302 258.86C302.203 255.417 300.404 253.284 297.606 253.364ZM307.722 265.959L307.307 251.517L313.996 251.324C316.515 251.252 318.966 251.741 319.05 254.68C319.095 256.219 318.338 257.194 317.013 257.848L317.014 257.876C318.703 258.164 319.803 259.42 319.859 261.352C319.93 263.815 318.162 265.658 315.587 265.732L307.722 265.959ZM313.911 257.153C315.955 257.094 316.634 256.374 316.599 255.143C316.564 253.939 315.902 253.314 313.803 253.375L309.688 253.493L309.797 257.271L313.911 257.153ZM309.855 259.287L309.986 263.849L315.08 263.702C316.592 263.659 317.43 262.598 317.39 261.227C317.352 259.911 316.488 259.096 314.529 259.152L309.855 259.287ZM335.023 260.607C334.391 263.959 332.285 265.728 328.87 265.826C324.616 265.949 321.988 263.223 321.853 258.521C321.719 253.847 324.343 250.606 328.345 250.491C333.103 250.354 335.003 254.081 335.123 258.251L335.133 258.587L324.273 258.9L324.25 259.068C324.338 262.147 326.099 263.945 328.898 263.865C330.969 263.805 332.091 262.876 332.7 260.674L335.023 260.607ZM332.614 256.727C332.311 253.99 330.724 252.383 328.345 252.452C326.022 252.519 324.447 254.245 324.217 256.968L332.614 256.727ZM340.223 265.023L337.844 265.092L337.428 250.65L339.807 250.581L339.972 256.319L347.193 256.111L347.028 250.374L349.407 250.305L349.823 264.747L347.444 264.816L347.254 258.21L340.033 258.418L340.223 265.023ZM365.413 259.789C365.491 262.504 363.78 264.346 360.953 264.427L353.312 264.647L352.896 250.205L355.275 250.136L355.434 255.65L360.584 255.502C363.411 255.421 365.334 257.046 365.413 259.789ZM359.887 257.567L355.493 257.693L355.631 262.479L360.025 262.353C361.984 262.296 362.995 261.399 362.95 259.86C362.906 258.32 361.874 257.51 359.887 257.567Z" fill="#131313"/>
<rect x="730.883" y="422.01" width="518.452" height="75.5462" rx="25" transform="rotate(0.669439 730.883 422.01)" fill="white"/>
<path d="M771.856 469.695L768.832 469.695L763.568 462.583L761.3 464.795L761.3 469.695L758.92 469.695L758.92 455.247L761.3 455.247L761.3 462.135L767.908 455.247L771.1 455.247L765.276 460.931L771.856 469.695ZM784.499 457.347L779.319 457.347L779.319 469.695L776.939 469.695L776.939 457.347L771.759 457.347L771.759 455.247L784.499 455.247L784.499 457.347ZM792.236 454.827C796.604 454.827 799.152 457.599 799.152 462.387C799.152 467.287 796.604 470.143 792.208 470.143C787.784 470.143 785.152 467.287 785.152 462.527C785.152 457.767 787.868 454.827 792.236 454.827ZM792.18 456.815C789.38 456.815 787.616 459.027 787.616 462.471C787.616 466.027 789.324 468.127 792.236 468.127C795.036 468.127 796.716 465.999 796.716 462.443C796.716 458.999 794.98 456.815 792.18 456.815ZM812.159 469.695L809.779 469.695L809.779 455.247L812.159 455.247L812.159 460.987L819.383 460.987L819.383 455.247L821.763 455.247L821.763 469.695L819.383 469.695L819.383 463.087L812.159 463.087L812.159 469.695ZM838.134 467.791L838.134 469.639C837.63 469.835 837.042 469.919 836.51 469.919C835.166 469.919 834.438 469.163 834.41 467.791C832.982 469.387 831.414 470.087 829.174 470.087C826.318 470.087 824.554 468.519 824.554 465.999C824.554 463.423 826.262 461.911 829.678 461.491C833.122 461.071 834.298 461.155 834.298 459.195C834.298 457.655 833.15 456.815 831.022 456.815C828.81 456.815 827.662 457.627 827.438 459.755L825.114 459.755C825.198 456.675 827.438 454.855 831.162 454.855C833.094 454.855 834.746 455.359 835.698 456.255C836.706 457.235 836.678 458.719 836.678 460.007C836.678 462.163 836.566 464.291 836.566 466.447C836.566 467.511 836.818 467.875 837.546 467.875C837.77 467.875 837.882 467.847 838.134 467.791ZM834.298 462.191C833.402 462.863 832.17 462.919 831.106 463.059C829.37 463.283 827.018 463.479 827.018 465.803C827.018 467.287 828.11 468.211 829.902 468.211C832.142 468.211 834.298 466.671 834.298 464.823L834.298 462.191ZM851.549 469.695L849.169 469.695L849.169 463.311C848.665 463.451 846.145 463.955 844.689 463.955C841.805 463.955 839.985 462.611 839.985 459.811L839.985 455.247L842.365 455.247L842.365 459.419C842.365 461.267 843.373 461.939 845.137 461.939C846.537 461.939 848.637 461.463 849.169 461.295L849.169 455.247L851.549 455.247L851.549 469.695ZM858.195 469.695L855.143 469.695L855.143 455.247L857.523 455.247L857.523 467.035L857.579 467.035L864.075 455.247L867.127 455.247L867.127 469.695L864.747 469.695L864.747 457.907L864.691 457.907L858.195 469.695ZM873.081 469.695L870.701 469.695L870.701 455.247L873.081 455.247L873.081 460.987L880.305 460.987L880.305 455.247L882.685 455.247L882.685 469.695L880.305 469.695L880.305 463.087L873.081 463.087L873.081 469.695ZM899.056 467.791L899.056 469.639C898.552 469.835 897.964 469.919 897.432 469.919C896.088 469.919 895.36 469.163 895.332 467.791C893.904 469.387 892.336 470.087 890.096 470.087C887.24 470.087 885.476 468.519 885.476 465.999C885.476 463.423 887.184 461.911 890.6 461.491C894.044 461.071 895.22 461.155 895.22 459.195C895.22 457.655 894.072 456.815 891.944 456.815C889.732 456.815 888.584 457.627 888.36 459.755L886.036 459.755C886.12 456.675 888.36 454.855 892.084 454.855C894.016 454.855 895.668 455.359 896.62 456.255C897.628 457.235 897.6 458.719 897.6 460.007C897.6 462.163 897.488 464.291 897.488 466.447C897.488 467.511 897.74 467.875 898.468 467.875C898.692 467.875 898.804 467.847 899.056 467.791ZM895.22 462.191C894.324 462.863 893.092 462.919 892.028 463.059C890.292 463.283 887.94 463.479 887.94 465.803C887.94 467.287 889.032 468.211 890.824 468.211C893.064 468.211 895.22 466.671 895.22 464.823L895.22 462.191ZM913.339 455.247L913.339 469.695L910.959 469.695L910.959 457.347L905.807 457.347L905.611 463.731C905.471 468.463 903.623 470.003 901.607 470.003C900.907 470.003 900.207 469.835 899.899 469.695L899.899 467.763C900.207 467.931 900.851 467.959 901.159 467.959C902.111 467.959 903.175 467.119 903.259 463.983L903.511 455.247L913.339 455.247ZM927.702 469.695L924.65 469.695L924.65 455.247L927.03 455.247L927.03 467.035L927.086 467.035L933.582 455.247L936.634 455.247L936.634 469.695L934.254 469.695L934.254 457.907L934.198 457.907L927.702 469.695ZM949.346 453.231C950.634 451.243 952.314 450.375 955.058 450.179C956.878 450.039 957.998 450.011 958.39 449.283L960.77 449.283C960.238 452.251 957.242 452.195 954.722 452.391C951.558 452.615 949.934 455.051 949.514 458.467L949.598 458.467C950.41 456.563 952.258 455.191 954.666 455.191C958.726 455.191 961.246 457.879 961.246 462.583C961.246 467.399 958.754 470.171 954.47 470.171C951.082 470.171 948.366 468.127 947.778 464.151C947.666 463.367 947.61 462.471 947.61 461.519C947.61 458.747 947.946 455.387 949.346 453.231ZM950.046 462.667C950.046 465.915 951.698 468.155 954.498 468.155C957.158 468.155 958.81 466.139 958.81 462.639C958.81 459.251 957.13 457.179 954.442 457.179C951.754 457.179 950.046 459.279 950.046 462.667ZM966.32 455.247L966.32 457.291C967.44 455.499 969.064 454.799 971.192 454.799C975.224 454.799 977.772 457.711 977.772 462.387C977.772 467.063 975.252 470.059 971.304 470.059C969.176 470.059 967.692 469.359 966.46 467.679L966.46 475.267L964.08 475.267L964.08 455.247L966.32 455.247ZM970.828 456.787C968.056 456.787 966.376 458.915 966.376 462.415C966.376 465.915 968.112 468.043 970.912 468.043C973.628 468.043 975.308 465.887 975.308 462.415C975.308 458.915 973.628 456.787 970.828 456.787ZM987.006 454.827C991.374 454.827 993.922 457.599 993.922 462.387C993.922 467.287 991.374 470.143 986.978 470.143C982.554 470.143 979.922 467.287 979.922 462.527C979.922 457.767 982.638 454.827 987.006 454.827ZM986.95 456.815C984.15 456.815 982.386 459.027 982.386 462.471C982.386 466.027 984.094 468.127 987.006 468.127C989.806 468.127 991.486 465.999 991.486 462.443C991.486 458.999 989.75 456.815 986.95 456.815ZM1009.19 464.431C1008.77 467.875 1006.47 470.115 1002.89 470.115C998.408 470.115 996.028 467.063 996.028 462.667C996.028 457.851 998.716 454.827 1002.97 454.827C1006.5 454.827 1008.71 456.675 1009.1 459.951L1006.64 459.951C1006.22 457.907 1004.96 456.815 1003 456.815C1000.26 456.815 998.52 458.999 998.52 462.471C998.52 465.999 1000.14 468.127 1002.83 468.127C1004.99 468.127 1006.42 466.811 1006.78 464.431L1009.19 464.431ZM1024.59 467.791L1024.59 469.639C1024.09 469.835 1023.5 469.919 1022.97 469.919C1021.62 469.919 1020.89 469.163 1020.87 467.791C1019.44 469.387 1017.87 470.087 1015.63 470.087C1012.77 470.087 1011.01 468.519 1011.01 465.999C1011.01 463.423 1012.72 461.911 1016.13 461.491C1019.58 461.071 1020.75 461.155 1020.75 459.195C1020.75 457.655 1019.61 456.815 1017.48 456.815C1015.27 456.815 1014.12 457.627 1013.89 459.755L1011.57 459.755C1011.65 456.675 1013.89 454.855 1017.62 454.855C1019.55 454.855 1021.2 455.359 1022.15 456.255C1023.16 457.235 1023.13 458.719 1023.13 460.007C1023.13 462.163 1023.02 464.291 1023.02 466.447C1023.02 467.511 1023.27 467.875 1024 467.875C1024.23 467.875 1024.34 467.847 1024.59 467.791ZM1020.75 462.191C1019.86 462.863 1018.63 462.919 1017.56 463.059C1015.83 463.283 1013.47 463.479 1013.47 465.803C1013.47 467.287 1014.57 468.211 1016.36 468.211C1018.6 468.211 1020.75 466.671 1020.75 464.823L1020.75 462.191ZM1038.87 455.247L1038.87 469.695L1036.49 469.695L1036.49 457.347L1031.34 457.347L1031.15 463.731C1031.01 468.463 1029.16 470.003 1027.14 470.003C1026.44 470.003 1025.74 469.835 1025.43 469.695L1025.43 467.763C1025.74 467.931 1026.39 467.959 1026.69 467.959C1027.65 467.959 1028.71 467.119 1028.79 463.983L1029.05 455.247L1038.87 455.247ZM1053.24 469.695L1050.19 469.695L1050.19 455.247L1052.57 455.247L1052.57 467.035L1052.62 467.035L1059.12 455.247L1062.17 455.247L1062.17 469.695L1059.79 469.695L1059.79 457.907L1059.73 457.907L1053.24 469.695ZM1064.93 459.419C1065.16 455.863 1068.12 454.827 1071.04 454.827C1074 454.827 1076.47 456.031 1076.47 458.719C1076.47 460.371 1075.32 461.519 1074.14 461.771L1074.14 461.827C1075.49 462.079 1076.94 463.171 1076.94 465.411C1076.94 468.547 1074 470.143 1070.95 470.143C1067.17 470.143 1064.85 468.323 1064.68 465.187L1067.09 465.187C1067.23 467.259 1068.8 468.211 1070.92 468.211C1073.19 468.211 1074.48 466.951 1074.48 465.467C1074.48 464.011 1073.61 463.115 1071.4 463.115L1069.41 463.115L1069.41 461.183L1071.01 461.183C1072.69 461.183 1074.06 460.539 1074.06 458.831C1074.06 457.767 1072.97 456.759 1071.01 456.759C1069.3 456.759 1067.54 457.459 1067.34 459.419L1064.93 459.419ZM1091.7 455.247L1085.51 471.543C1084.73 473.587 1083.92 475.519 1081.34 475.519C1080.72 475.519 1080.16 475.407 1079.58 475.267L1079.58 473.139C1080.33 473.363 1080.7 473.447 1081.12 473.447C1081.9 473.447 1082.52 472.915 1082.8 472.243L1083.92 469.611L1078.18 455.247L1080.86 455.247L1085.15 466.755L1089.21 455.247L1091.7 455.247ZM1104.92 469.695L1102.54 469.695L1102.54 463.311C1102.03 463.451 1099.51 463.955 1098.06 463.955C1095.17 463.955 1093.35 462.611 1093.35 459.811L1093.35 455.247L1095.73 455.247L1095.73 459.419C1095.73 461.267 1096.74 461.939 1098.5 461.939C1099.9 461.939 1102 461.463 1102.54 461.295L1102.54 455.247L1104.92 455.247L1104.92 469.695ZM1121.31 467.791L1121.31 469.639C1120.8 469.835 1120.21 469.919 1119.68 469.919C1118.34 469.919 1117.61 469.163 1117.58 467.791C1116.15 469.387 1114.59 470.087 1112.35 470.087C1109.49 470.087 1107.73 468.519 1107.73 465.999C1107.73 463.423 1109.43 461.911 1112.85 461.491C1116.29 461.071 1117.47 461.155 1117.47 459.195C1117.47 457.655 1116.32 456.815 1114.19 456.815C1111.98 456.815 1110.83 457.627 1110.61 459.755L1108.29 459.755C1108.37 456.675 1110.61 454.855 1114.33 454.855C1116.27 454.855 1117.92 455.359 1118.87 456.255C1119.88 457.235 1119.85 458.719 1119.85 460.007C1119.85 462.163 1119.74 464.291 1119.74 466.447C1119.74 467.511 1119.99 467.875 1120.72 467.875C1120.94 467.875 1121.05 467.847 1121.31 467.791ZM1117.47 462.191C1116.57 462.863 1115.34 462.919 1114.28 463.059C1112.54 463.283 1110.19 463.479 1110.19 465.803C1110.19 467.287 1111.28 468.211 1113.07 468.211C1115.31 468.211 1117.47 466.671 1117.47 464.823L1117.47 462.191ZM1134.61 457.347L1129.43 457.347L1129.43 469.695L1127.05 469.695L1127.05 457.347L1121.87 457.347L1121.87 455.247L1134.61 455.247L1134.61 457.347ZM1148.66 465.187C1148.66 467.903 1146.9 469.695 1144.07 469.695L1136.43 469.695L1136.43 455.247L1138.81 455.247L1138.81 460.763L1143.96 460.763C1146.79 460.763 1148.66 462.443 1148.66 465.187ZM1143.2 462.807L1138.81 462.807L1138.81 467.595L1143.2 467.595C1145.16 467.595 1146.2 466.727 1146.2 465.187C1146.2 463.647 1145.19 462.807 1143.2 462.807ZM1170.25 469.695L1167.87 469.695L1167.87 463.787L1164.7 463.787L1160.14 469.695L1156.97 469.695L1161.96 463.703C1159.91 463.395 1158.37 461.883 1158.37 459.503C1158.37 456.787 1160.11 455.247 1162.91 455.247L1170.25 455.247L1170.25 469.695ZM1167.87 457.347L1163.67 457.347C1161.71 457.347 1160.81 458.047 1160.81 459.503C1160.81 460.987 1161.68 461.687 1163.67 461.687L1167.87 461.687L1167.87 457.347ZM1173.05 459.419C1173.27 455.863 1176.24 454.827 1179.15 454.827C1182.12 454.827 1184.59 456.031 1184.59 458.719C1184.59 460.371 1183.44 461.519 1182.26 461.771L1182.26 461.827C1183.61 462.079 1185.06 463.171 1185.06 465.411C1185.06 468.547 1182.12 470.143 1179.07 470.143C1175.29 470.143 1172.97 468.323 1172.8 465.187L1175.21 465.187C1175.35 467.259 1176.91 468.211 1179.04 468.211C1181.31 468.211 1182.6 466.951 1182.6 465.467C1182.6 464.011 1181.73 463.115 1179.52 463.115L1177.53 463.115L1177.53 461.183L1179.13 461.183C1180.81 461.183 1182.18 460.539 1182.18 458.831C1182.18 457.767 1181.09 456.759 1179.13 456.759C1177.42 456.759 1175.65 457.459 1175.46 459.419L1173.05 459.419ZM1201.64 455.247L1204.02 455.247L1204.02 469.695L1201.64 469.695L1201.64 455.247ZM1199.34 465.187C1199.34 467.903 1197.58 469.695 1194.75 469.695L1187.78 469.695L1187.78 455.247L1190.16 455.247L1190.16 460.763L1194.64 460.763C1197.47 460.763 1199.34 462.443 1199.34 465.187ZM1193.88 462.807L1190.16 462.807L1190.16 467.595L1193.88 467.595C1195.84 467.595 1196.88 466.727 1196.88 465.187C1196.88 463.647 1195.87 462.807 1193.88 462.807ZM1220.51 469.695L1217.49 469.695L1212.22 462.583L1209.96 464.795L1209.96 469.695L1207.58 469.695L1207.58 455.247L1209.96 455.247L1209.96 462.135L1216.56 455.247L1219.76 455.247L1213.93 460.931L1220.51 469.695Z" fill="#131313"/>
<rect x="121" y="1005" width="569" height="73" rx="25" fill="white"/>
<path d="M180.974 1047.68H177.95L172.686 1040.57L170.418 1042.78V1047.68H168.038V1033.23H170.418V1040.12L177.026 1033.23H180.218L174.394 1038.91L180.974 1047.68ZM188.886 1032.81C193.254 1032.81 195.802 1035.58 195.802 1040.37C195.802 1045.27 193.254 1048.13 188.858 1048.13C184.434 1048.13 181.802 1045.27 181.802 1040.51C181.802 1035.75 184.518 1032.81 188.886 1032.81ZM188.83 1034.8C186.03 1034.8 184.266 1037.01 184.266 1040.45C184.266 1044.01 185.974 1046.11 188.886 1046.11C191.686 1046.11 193.366 1043.98 193.366 1040.43C193.366 1036.98 191.63 1034.8 188.83 1034.8ZM214.288 1047.68H211.908V1036.28H211.824L207.54 1047.68H205.356L201.072 1036.28H200.988V1047.68H198.608V1033.23H202.024L206.42 1044.93H206.476L210.872 1033.23H214.288V1047.68ZM229.76 1033.23L223.572 1049.53C222.788 1051.57 221.976 1053.5 219.4 1053.5C218.784 1053.5 218.224 1053.39 217.636 1053.25V1051.12C218.392 1051.35 218.756 1051.43 219.176 1051.43C219.96 1051.43 220.576 1050.9 220.856 1050.23L221.976 1047.59L216.236 1033.23H218.924L223.208 1044.74L227.268 1033.23H229.76ZM241.977 1047.68H239.597V1033.23H241.977V1038.97H249.201V1033.23H251.581V1047.68H249.201V1041.07H241.977V1047.68ZM267.111 1033.23L260.923 1049.53C260.139 1051.57 259.327 1053.5 256.751 1053.5C256.135 1053.5 255.575 1053.39 254.987 1053.25V1051.12C255.743 1051.35 256.107 1051.43 256.527 1051.43C257.311 1051.43 257.927 1050.9 258.207 1050.23L259.327 1047.59L253.587 1033.23H256.275L260.559 1044.74L264.619 1033.23H267.111ZM275.259 1040.68L270.303 1047.68H267.363L273.691 1039.17L268.175 1033.23H271.115L276.995 1039.87H277.051V1033.23H279.431V1039.87H279.487L285.367 1033.23H288.307L282.791 1039.17L289.119 1047.68H286.179L281.223 1040.68L279.431 1042.5V1047.68H277.051V1042.5L275.259 1040.68ZM293.328 1047.68H290.948V1033.23H293.328V1038.97H300.552V1033.23H302.932V1047.68H300.552V1041.07H293.328V1047.68ZM312.835 1032.81C317.203 1032.81 319.751 1035.58 319.751 1040.37C319.751 1045.27 317.203 1048.13 312.807 1048.13C308.383 1048.13 305.751 1045.27 305.751 1040.51C305.751 1035.75 308.467 1032.81 312.835 1032.81ZM312.779 1034.8C309.979 1034.8 308.215 1037.01 308.215 1040.45C308.215 1044.01 309.923 1046.11 312.835 1046.11C315.635 1046.11 317.315 1043.98 317.315 1040.43C317.315 1036.98 315.579 1034.8 312.779 1034.8ZM340.346 1035.33H332.814V1047.68H330.434V1033.23H340.346V1035.33ZM347.78 1032.81C352.148 1032.81 354.696 1035.58 354.696 1040.37C354.696 1045.27 352.148 1048.13 347.752 1048.13C343.328 1048.13 340.696 1045.27 340.696 1040.51C340.696 1035.75 343.412 1032.81 347.78 1032.81ZM347.724 1034.8C344.924 1034.8 343.16 1037.01 343.16 1040.45C343.16 1044.01 344.868 1046.11 347.78 1046.11C350.58 1046.11 352.26 1043.98 352.26 1040.43C352.26 1036.98 350.524 1034.8 347.724 1034.8ZM368.098 1035.33H362.918V1047.68H360.538V1035.33H355.358V1033.23H368.098V1035.33ZM375.835 1032.81C380.203 1032.81 382.751 1035.58 382.751 1040.37C382.751 1045.27 380.203 1048.13 375.807 1048.13C371.383 1048.13 368.751 1045.27 368.751 1040.51C368.751 1035.75 371.467 1032.81 375.835 1032.81ZM375.779 1034.8C372.979 1034.8 371.215 1037.01 371.215 1040.45C371.215 1044.01 372.923 1046.11 375.835 1046.11C378.635 1046.11 380.315 1043.98 380.315 1040.43C380.315 1036.98 378.579 1034.8 375.779 1034.8ZM385.529 1047.68V1033.23H392.221C394.741 1033.23 397.177 1033.79 397.177 1036.73C397.177 1038.27 396.393 1039.22 395.049 1039.84V1039.87C396.729 1040.2 397.793 1041.49 397.793 1043.42C397.793 1045.89 395.973 1047.68 393.397 1047.68H385.529ZM391.969 1039.05C394.013 1039.05 394.713 1038.35 394.713 1037.12C394.713 1035.92 394.069 1035.27 391.969 1035.27H387.853V1039.05H391.969ZM387.853 1041.07V1045.63H392.949C394.461 1045.63 395.329 1044.6 395.329 1043.23C395.329 1041.91 394.489 1041.07 392.529 1041.07H387.853ZM403.676 1047.68H400.624V1033.23H403.004V1045.02H403.06L409.556 1033.23H412.608V1047.68H410.228V1035.89H410.172L403.676 1047.68ZM427.243 1035.33H422.063V1047.68H419.683V1035.33H414.503V1033.23H427.243V1035.33ZM441.296 1043.17C441.296 1045.89 439.532 1047.68 436.704 1047.68H429.06V1033.23H431.44V1038.75H436.592C439.42 1038.75 441.296 1040.43 441.296 1043.17ZM435.836 1040.79H431.44V1045.58H435.836C437.796 1045.58 438.832 1044.71 438.832 1043.17C438.832 1041.63 437.824 1040.79 435.836 1040.79ZM456.095 1042.41C455.675 1045.86 453.379 1048.1 449.795 1048.1C445.315 1048.1 442.935 1045.05 442.935 1040.65C442.935 1035.83 445.623 1032.81 449.879 1032.81C453.407 1032.81 455.619 1034.66 456.011 1037.93H453.547C453.127 1035.89 451.867 1034.8 449.907 1034.8C447.163 1034.8 445.427 1036.98 445.427 1040.45C445.427 1043.98 447.051 1046.11 449.739 1046.11C451.895 1046.11 453.323 1044.79 453.687 1042.41H456.095ZM470.126 1047.68H467.746V1041.77H464.582L460.018 1047.68H456.854L461.838 1041.69C459.794 1041.38 458.254 1039.87 458.254 1037.49C458.254 1034.77 459.99 1033.23 462.79 1033.23H470.126V1047.68ZM467.746 1035.33H463.546C461.586 1035.33 460.69 1036.03 460.69 1037.49C460.69 1038.97 461.558 1039.67 463.546 1039.67H467.746V1035.33ZM494.47 1047.68H491.446L486.182 1040.57L483.914 1042.78V1047.68H481.534V1033.23H483.914V1040.12L490.522 1033.23H493.714L487.89 1038.91L494.47 1047.68ZM516.027 1040.65C516.027 1045.05 513.647 1048.1 509.167 1048.1C505.695 1048.1 503.427 1046 502.923 1042.75H505.331C505.779 1044.91 507.179 1046.11 509.223 1046.11C511.743 1046.11 513.339 1044.23 513.507 1041.1H507.459V1039.17H513.451C513.059 1036.45 511.435 1034.8 509.055 1034.8C507.263 1034.8 506.059 1035.72 505.555 1037.43H503.035C503.567 1034.46 505.751 1032.81 509.083 1032.81C513.339 1032.81 516.027 1035.83 516.027 1040.65ZM531.822 1047.68H528.798L523.534 1040.57L521.266 1042.78V1047.68H518.886V1033.23H521.266V1040.12L527.874 1033.23H531.066L525.242 1038.91L531.822 1047.68ZM532.593 1037.4C532.817 1033.85 535.785 1032.81 538.697 1032.81C541.665 1032.81 544.129 1034.01 544.129 1036.7C544.129 1038.35 542.981 1039.5 541.805 1039.75V1039.81C543.149 1040.06 544.605 1041.15 544.605 1043.39C544.605 1046.53 541.665 1048.13 538.613 1048.13C534.833 1048.13 532.509 1046.31 532.341 1043.17H534.749C534.889 1045.24 536.457 1046.19 538.585 1046.19C540.853 1046.19 542.141 1044.93 542.141 1043.45C542.141 1041.99 541.273 1041.1 539.061 1041.1H537.073V1039.17H538.669C540.349 1039.17 541.721 1038.52 541.721 1036.81C541.721 1035.75 540.629 1034.74 538.669 1034.74C536.961 1034.74 535.197 1035.44 535.001 1037.4H532.593ZM560.201 1045.77V1047.62C559.697 1047.82 559.109 1047.9 558.577 1047.9C557.233 1047.9 556.505 1047.15 556.477 1045.77C555.049 1047.37 553.481 1048.07 551.241 1048.07C548.385 1048.07 546.621 1046.5 546.621 1043.98C546.621 1041.41 548.329 1039.89 551.745 1039.47C555.189 1039.05 556.365 1039.14 556.365 1037.18C556.365 1035.64 555.217 1034.8 553.089 1034.8C550.877 1034.8 549.729 1035.61 549.505 1037.74H547.181C547.265 1034.66 549.505 1032.84 553.229 1032.84C555.161 1032.84 556.813 1033.34 557.765 1034.24C558.773 1035.22 558.745 1036.7 558.745 1037.99C558.745 1040.15 558.633 1042.27 558.633 1044.43C558.633 1045.49 558.885 1045.86 559.613 1045.86C559.837 1045.86 559.949 1045.83 560.201 1045.77ZM556.365 1040.17C555.469 1040.85 554.237 1040.9 553.173 1041.04C551.437 1041.27 549.085 1041.46 549.085 1043.79C549.085 1045.27 550.177 1046.19 551.969 1046.19C554.209 1046.19 556.365 1044.65 556.365 1042.81V1040.17ZM578.096 1047.68H575.716V1036.28H575.632L571.348 1047.68H569.164L564.88 1036.28H564.796V1047.68H562.416V1033.23H565.832L570.228 1044.93H570.284L574.68 1033.23H578.096V1047.68ZM593.96 1043.11C593.232 1046.45 591.076 1048.15 587.66 1048.15C583.404 1048.15 580.856 1045.35 580.856 1040.65C580.856 1035.97 583.572 1032.81 587.576 1032.81C592.336 1032.81 594.128 1036.59 594.128 1040.76V1041.1H583.264L583.236 1041.27C583.236 1044.35 584.944 1046.19 587.744 1046.19C589.816 1046.19 590.964 1045.3 591.636 1043.11H593.96ZM591.664 1039.17C591.44 1036.42 589.9 1034.77 587.52 1034.77C585.196 1034.77 583.572 1036.45 583.264 1039.17H591.664ZM599.031 1047.68H596.651V1033.23H599.031V1038.97H606.255V1033.23H608.635V1047.68H606.255V1041.07H599.031V1047.68ZM625.006 1045.77V1047.62C624.502 1047.82 623.914 1047.9 623.382 1047.9C622.038 1047.9 621.31 1047.15 621.282 1045.77C619.854 1047.37 618.286 1048.07 616.046 1048.07C613.19 1048.07 611.426 1046.5 611.426 1043.98C611.426 1041.41 613.134 1039.89 616.55 1039.47C619.994 1039.05 621.17 1039.14 621.17 1037.18C621.17 1035.64 620.022 1034.8 617.894 1034.8C615.682 1034.8 614.534 1035.61 614.31 1037.74H611.986C612.07 1034.66 614.31 1032.84 618.034 1032.84C619.966 1032.84 621.618 1033.34 622.57 1034.24C623.578 1035.22 623.55 1036.7 623.55 1037.99C623.55 1040.15 623.438 1042.27 623.438 1044.43C623.438 1045.49 623.69 1045.86 624.418 1045.86C624.642 1045.86 624.754 1045.83 625.006 1045.77ZM621.17 1040.17C620.274 1040.85 619.042 1040.9 617.978 1041.04C616.242 1041.27 613.89 1041.46 613.89 1043.79C613.89 1045.27 614.982 1046.19 616.774 1046.19C619.014 1046.19 621.17 1044.65 621.17 1042.81V1040.17ZM642.901 1047.68H640.521V1036.28H640.437L636.153 1047.68H633.969L629.685 1036.28H629.601V1047.68H627.221V1033.23H630.637L635.033 1044.93H635.089L639.485 1033.23H642.901V1047.68Z" fill="#131313"/>
<g clip-path="url(#clip0_2002_148)">
<rect x="875" y="812.857" width="468.424" height="99.9809" rx="25" transform="rotate(-2.67438 875 812.857)" fill="white"/>
<path d="M911.935 837.698L906.343 854.208C905.633 856.279 904.892 858.239 902.318 858.332C901.702 858.355 901.138 858.263 900.546 858.145L900.469 856.018C901.232 856.214 901.599 856.285 902.019 856.27C902.802 856.241 903.398 855.687 903.654 855.006L904.678 852.335L898.42 838.189L901.106 838.091L905.805 849.436L909.445 837.788L911.935 837.698ZM920.348 844.845L915.649 852.02L912.711 852.127L918.726 843.391L912.998 837.659L915.936 837.552L922.053 843.97L922.109 843.968L921.868 837.337L924.247 837.25L924.488 843.882L924.544 843.88L930.179 837.035L933.117 836.928L927.82 843.06L934.453 851.337L931.515 851.444L926.308 844.628L924.583 846.512L924.771 851.689L922.393 851.775L922.205 846.599L920.348 844.845ZM947.963 846.279C947.356 849.635 945.264 851.42 941.85 851.545C937.597 851.699 934.949 848.993 934.778 844.293C934.608 839.62 937.208 836.359 941.209 836.214C945.966 836.041 947.894 839.753 948.046 843.923L948.058 844.258L937.201 844.653L937.179 844.822C937.291 847.9 939.065 849.684 941.863 849.583C943.934 849.508 945.048 848.57 945.641 846.363L947.963 846.279ZM945.525 842.417C945.202 839.683 943.603 838.088 941.224 838.174C938.902 838.259 937.34 839.997 937.131 842.722L945.525 842.417ZM972.763 854.54L970.497 854.622L970.33 850.033L959.305 850.434L959.472 855.023L957.206 855.105L956.963 848.418L958.53 848.361C959.311 846.735 960.144 842.67 960.012 839.033L959.9 835.955L970.197 835.581L970.646 847.921L972.52 847.852L972.763 854.54ZM968.267 848.007L967.895 837.766L962.299 837.969L962.342 839.172C962.474 842.782 961.72 846.704 960.992 848.271L968.267 848.007ZM987.392 847.508L987.459 849.355C986.962 849.569 986.378 849.675 985.846 849.694C984.503 849.743 983.748 849.014 983.67 847.643C982.301 849.29 980.76 850.047 978.521 850.128C975.667 850.232 973.847 848.729 973.756 846.211C973.662 843.636 975.314 842.063 978.713 841.519C982.139 840.975 983.317 841.016 983.246 839.057C983.19 837.518 982.013 836.72 979.886 836.798C977.675 836.878 976.558 837.731 976.411 839.866L974.089 839.95C974.061 836.869 976.233 834.969 979.955 834.834C981.885 834.764 983.555 835.207 984.539 836.068C985.581 837.011 985.607 838.495 985.654 839.782C985.732 841.937 985.698 844.068 985.776 846.222C985.815 847.285 986.08 847.64 986.807 847.614C987.031 847.605 987.142 847.573 987.392 847.508ZM983.355 842.051C982.484 842.755 981.255 842.856 980.197 843.035C978.47 843.321 976.127 843.603 976.211 845.925C976.265 847.408 977.39 848.292 979.18 848.227C981.419 848.146 983.518 846.528 983.451 844.682L983.355 842.051ZM989.647 849.332L989.122 834.893L995.81 834.65C998.328 834.559 1000.78 835.03 1000.89 837.968C1000.95 839.507 1000.2 840.487 998.876 841.151L998.877 841.179C1000.57 841.454 1001.68 842.702 1001.75 844.633C1001.84 847.095 1000.08 848.952 997.509 849.046L989.647 849.332ZM995.769 840.479C997.812 840.405 998.486 839.68 998.441 838.449C998.397 837.246 997.731 836.626 995.632 836.702L991.519 836.851L991.656 840.629L995.769 840.479ZM991.729 842.644L991.895 847.205L996.987 847.02C998.498 846.965 999.328 845.898 999.278 844.527C999.231 843.212 998.361 842.403 996.402 842.474L991.729 842.644ZM1007.11 848.697L1004.73 848.783L1004.21 834.345L1006.59 834.259L1006.79 839.995L1014.01 839.733L1013.8 833.996L1016.18 833.91L1016.71 848.348L1014.33 848.435L1014.09 841.831L1006.87 842.093L1007.11 848.697ZM1026.06 833.131C1030.43 832.972 1033.08 835.65 1033.25 840.435C1033.43 845.331 1030.99 848.278 1026.59 848.438C1022.17 848.598 1019.44 845.84 1019.26 841.083C1019.09 836.326 1021.7 833.289 1026.06 833.131ZM1026.08 835.119C1023.28 835.221 1021.6 837.496 1021.72 840.937C1021.85 844.491 1023.64 846.528 1026.55 846.422C1029.35 846.32 1030.95 844.133 1030.82 840.579C1030.69 837.137 1028.88 835.018 1026.08 835.119ZM1047.19 847.241L1044.14 847.352L1043.61 832.913L1045.99 832.827L1046.42 844.607L1046.47 844.605L1052.54 832.589L1055.59 832.478L1056.11 846.917L1053.73 847.003L1053.3 835.223L1053.25 835.225L1047.19 847.241ZM1058.5 836.547C1058.59 832.985 1061.52 831.842 1064.43 831.737C1067.4 831.629 1069.9 832.743 1070 835.429C1070.06 837.08 1068.96 838.269 1067.79 838.563L1067.79 838.619C1069.14 838.822 1070.64 839.861 1070.72 842.099C1070.83 845.233 1067.95 846.935 1064.9 847.045C1061.13 847.183 1058.74 845.448 1058.46 842.32L1060.86 842.233C1061.08 844.299 1062.68 845.193 1064.81 845.116C1067.07 845.033 1068.31 843.727 1068.26 842.244C1068.21 840.789 1067.31 839.926 1065.1 840.006L1063.11 840.078L1063.04 838.147L1064.64 838.089C1066.31 838.028 1067.66 837.335 1067.6 835.628C1067.56 834.565 1066.43 833.597 1064.47 833.668C1062.77 833.73 1061.03 834.494 1060.91 836.46L1058.5 836.547ZM1085.1 831.406L1079.51 847.916C1078.8 849.987 1078.06 851.947 1075.48 852.041C1074.87 852.063 1074.3 851.972 1073.71 851.853L1073.63 849.726C1074.4 849.923 1074.76 849.994 1075.18 849.978C1075.97 849.95 1076.56 849.396 1076.82 848.714L1077.84 846.043L1071.58 831.897L1074.27 831.799L1078.97 843.144L1082.61 831.496L1085.1 831.406ZM1098.83 845.365L1096.45 845.451L1096.22 839.071C1095.72 839.229 1093.22 839.825 1091.77 839.877C1088.88 839.982 1087.02 838.705 1086.91 835.907L1086.75 831.346L1089.13 831.26L1089.28 835.429C1089.35 837.276 1090.38 837.911 1092.14 837.846C1093.54 837.796 1095.62 837.244 1096.15 837.057L1095.93 831.013L1098.31 830.926L1098.83 845.365ZM1115.14 842.867L1115.21 844.713C1114.71 844.928 1114.13 845.033 1113.59 845.052C1112.25 845.101 1111.5 844.372 1111.42 843.002C1110.05 844.649 1108.51 845.405 1106.27 845.487C1103.41 845.59 1101.59 844.087 1101.5 841.569C1101.41 838.995 1103.06 837.422 1106.46 836.878C1109.89 836.333 1111.07 836.374 1110.99 834.416C1110.94 832.877 1109.76 832.079 1107.63 832.156C1105.42 832.237 1104.31 833.09 1104.16 835.224L1101.84 835.309C1101.81 832.228 1103.98 830.328 1107.7 830.192C1109.63 830.122 1111.3 830.566 1112.29 831.427C1113.33 832.37 1113.36 833.854 1113.4 835.141C1113.48 837.295 1113.45 839.426 1113.52 841.581C1113.56 842.644 1113.83 842.998 1114.55 842.972C1114.78 842.964 1114.89 842.932 1115.14 842.867ZM1111.1 837.41C1110.23 838.114 1109 838.214 1107.94 838.393C1106.22 838.68 1103.87 838.961 1103.96 841.284C1104.01 842.767 1105.14 843.65 1106.93 843.585C1109.17 843.504 1111.27 841.887 1111.2 840.04L1111.1 837.41ZM1129.62 839.679C1129.02 843.035 1126.93 844.82 1123.51 844.944C1119.26 845.099 1116.61 842.393 1116.44 837.692C1116.27 833.019 1118.87 829.759 1122.87 829.613C1127.63 829.44 1129.56 833.153 1129.71 837.322L1129.72 837.658L1118.86 838.052L1118.84 838.221C1118.95 841.299 1120.73 843.084 1123.52 842.982C1125.59 842.907 1126.71 841.97 1127.3 839.763L1129.62 839.679ZM1127.19 835.817C1126.86 833.083 1125.26 831.488 1122.89 831.574C1120.56 831.658 1119 833.396 1118.79 836.122L1127.19 835.817ZM1142.59 831.418L1137.42 831.606L1137.86 843.946L1135.49 844.033L1135.04 831.693L1129.86 831.881L1129.78 829.782L1142.52 829.32L1142.59 831.418ZM1164.14 842.991L1161.77 843.078L1161.55 837.174L1158.39 837.289L1154.04 843.358L1150.88 843.473L1155.64 837.304C1153.59 837.071 1152 835.616 1151.91 833.237C1151.81 830.523 1153.49 828.921 1156.29 828.819L1163.62 828.553L1164.14 842.991ZM1161.32 830.738L1157.12 830.891C1155.16 830.962 1154.29 831.694 1154.34 833.149C1154.4 834.632 1155.29 835.3 1157.28 835.228L1161.47 835.075L1161.32 830.738ZM1166.57 832.62C1166.67 829.059 1169.6 827.916 1172.51 827.81C1175.47 827.702 1177.98 828.816 1178.08 831.502C1178.14 833.153 1177.03 834.342 1175.86 834.636L1175.87 834.692C1177.22 834.895 1178.71 835.934 1178.79 838.172C1178.91 841.306 1176.03 843.008 1172.98 843.119C1169.2 843.256 1166.81 841.522 1166.53 838.394L1168.94 838.306C1169.15 840.372 1170.75 841.266 1172.88 841.189C1175.15 841.107 1176.39 839.801 1176.33 838.318C1176.28 836.863 1175.38 835.999 1173.17 836.079L1171.18 836.151L1171.11 834.221L1172.71 834.163C1174.39 834.102 1175.73 833.408 1175.67 831.701C1175.63 830.638 1174.51 829.67 1172.55 829.742C1170.84 829.804 1169.1 830.567 1168.98 832.533L1166.57 832.62ZM1194.99 827.413L1197.37 827.327L1197.89 841.765L1195.51 841.852L1194.99 827.413ZM1193.06 837.43C1193.16 840.144 1191.46 841.999 1188.63 842.102L1181.66 842.355L1181.14 827.916L1183.52 827.83L1183.72 833.342L1188.19 833.18C1191.02 833.077 1192.96 834.688 1193.06 837.43ZM1187.51 835.25L1183.79 835.385L1183.97 840.17L1187.69 840.035C1189.65 839.963 1190.65 839.058 1190.59 837.519C1190.54 835.98 1189.5 835.178 1187.51 835.25ZM1214.38 841.166L1211.35 841.276L1205.84 834.36L1203.65 836.653L1203.83 841.55L1201.45 841.636L1200.92 827.198L1203.3 827.111L1203.55 833.995L1209.91 826.871L1213.1 826.755L1207.48 832.647L1214.38 841.166ZM1226.8 840.715L1223.75 840.826L1223.22 826.387L1225.6 826.301L1226.03 838.081L1226.09 838.079L1232.15 826.063L1235.2 825.952L1235.72 840.391L1233.34 840.477L1232.92 828.697L1232.86 828.699L1226.8 840.715ZM1258.42 825.108L1253.63 831.951L1259.54 839.526L1256.49 839.636L1252.21 833.852L1248.43 839.929L1245.54 840.034L1250.7 832.226L1245.44 825.58L1248.46 825.47L1252.14 830.296L1255.54 825.213L1258.42 825.108ZM1266.86 824.382C1271.22 824.223 1273.87 826.901 1274.04 831.686C1274.22 836.582 1271.78 839.529 1267.39 839.689C1262.97 839.849 1260.23 837.091 1260.06 832.334C1259.89 827.577 1262.49 824.54 1266.86 824.382ZM1266.87 826.37C1264.08 826.472 1262.39 828.747 1262.52 832.188C1262.65 835.742 1264.43 837.779 1267.34 837.673C1270.14 837.571 1271.74 835.384 1271.61 831.83C1271.49 828.388 1269.67 826.269 1266.87 826.37ZM1288.31 838.48L1285.93 838.567L1285.7 832.187C1285.2 832.345 1282.7 832.94 1281.24 832.993C1278.36 833.098 1276.49 831.821 1276.39 829.023L1276.23 824.462L1278.6 824.375L1278.76 828.544C1278.82 830.391 1279.85 831.026 1281.62 830.962C1283.02 830.911 1285.1 830.359 1285.62 830.172L1285.4 824.128L1287.78 824.042L1288.31 838.48ZM1304.07 833.34C1303.47 836.697 1301.37 838.482 1297.96 838.606C1293.71 838.76 1291.06 836.055 1290.89 831.354C1290.72 826.681 1293.32 823.42 1297.32 823.275C1302.07 823.102 1304 826.815 1304.15 830.984L1304.17 831.32L1293.31 831.714L1293.29 831.883C1293.4 834.961 1295.17 836.746 1297.97 836.644C1300.04 836.569 1301.16 835.632 1301.75 833.425L1304.07 833.34ZM1301.63 829.478C1301.31 826.744 1299.71 825.149 1297.33 825.236C1295.01 825.32 1293.45 827.058 1293.24 829.783L1301.63 829.478ZM1317.04 825.08L1311.86 825.268L1312.31 837.608L1309.93 837.694L1309.48 825.355L1304.31 825.543L1304.23 823.444L1316.96 822.981L1317.04 825.08ZM987.349 867.151C987.443 863.589 990.372 862.446 993.282 862.34C996.248 862.232 998.754 863.346 998.852 866.032C998.912 867.683 997.806 868.872 996.64 869.167L996.642 869.223C997.994 869.426 999.489 870.464 999.57 872.703C999.684 875.837 996.804 877.538 993.754 877.649C989.976 877.786 987.588 876.052 987.306 872.924L989.713 872.837C989.928 874.902 991.529 875.797 993.656 875.719C995.922 875.637 997.164 874.331 997.11 872.848C997.057 871.393 996.157 870.529 993.946 870.609L991.96 870.682L991.89 868.751L993.485 868.693C995.163 868.632 996.511 867.939 996.449 866.232C996.411 865.168 995.283 864.201 993.324 864.272C991.617 864.334 989.88 865.098 989.755 867.063L987.349 867.151ZM1002.47 876.884L1001.94 862.446L1008.63 862.203C1011.15 862.111 1013.6 862.582 1013.71 865.521C1013.77 867.059 1013.02 868.039 1011.7 868.704L1011.7 868.732C1013.39 869.006 1014.5 870.255 1014.57 872.186C1014.66 874.648 1012.91 876.505 1010.33 876.599L1002.47 876.884ZM1008.59 868.032C1010.63 867.958 1011.31 867.233 1011.26 866.002C1011.22 864.799 1010.55 864.178 1008.45 864.255L1004.34 864.404L1004.48 868.182L1008.59 868.032ZM1004.55 870.196L1004.72 874.757L1009.81 874.572C1011.32 874.517 1012.15 873.45 1012.1 872.079C1012.05 870.764 1011.18 869.955 1009.22 870.026L1004.55 870.196ZM1028.98 861.464L1023.38 877.973C1022.68 880.045 1021.93 882.005 1019.36 882.098C1018.74 882.121 1018.18 882.029 1017.59 881.911L1017.51 879.784C1018.27 879.98 1018.64 880.051 1019.06 880.036C1019.84 880.007 1020.44 879.453 1020.7 878.772L1021.72 876.101L1015.46 861.955L1018.15 861.857L1022.85 873.202L1026.49 861.554L1028.98 861.464ZM1042.71 875.422L1040.33 875.509L1040.1 869.129C1039.6 869.287 1037.1 869.882 1035.64 869.935C1032.76 870.04 1030.89 868.763 1030.79 865.965L1030.63 861.404L1033.01 861.317L1033.16 865.486C1033.22 867.333 1034.26 867.968 1036.02 867.904C1037.42 867.853 1039.5 867.301 1040.03 867.114L1039.81 861.07L1042.18 860.984L1042.71 875.422ZM1059.02 872.924L1059.09 874.771C1058.59 874.985 1058 875.091 1057.47 875.11C1056.13 875.159 1055.37 874.43 1055.3 873.06C1053.93 874.706 1052.39 875.463 1050.15 875.544C1047.29 875.648 1045.47 874.145 1045.38 871.627C1045.29 869.052 1046.94 867.479 1050.34 866.935C1053.77 866.391 1054.94 866.432 1054.87 864.473C1054.82 862.934 1053.64 862.136 1051.51 862.214C1049.3 862.294 1048.18 863.147 1048.04 865.282L1045.71 865.366C1045.69 862.285 1047.86 860.385 1051.58 860.25C1053.51 860.18 1055.18 860.624 1056.16 861.484C1057.21 862.427 1057.23 863.911 1057.28 865.198C1057.36 867.353 1057.32 869.484 1057.4 871.638C1057.44 872.701 1057.71 873.056 1058.43 873.03C1058.66 873.021 1058.77 872.989 1059.02 872.924ZM1054.98 867.467C1054.11 868.171 1052.88 868.272 1051.82 868.451C1050.1 868.737 1047.75 869.019 1047.84 871.341C1047.89 872.824 1049.02 873.708 1050.81 873.643C1053.05 873.562 1055.14 871.944 1055.08 870.098L1054.98 867.467ZM1071.93 862.004L1066.76 862.192L1067.2 874.532L1064.83 874.619L1064.38 862.279L1059.2 862.467L1059.13 860.368L1071.86 859.906L1071.93 862.004ZM1086.26 869.329C1086.36 872.043 1084.66 873.898 1081.84 874L1074.2 874.278L1073.67 859.84L1076.05 859.753L1076.25 865.266L1081.4 865.078C1084.23 864.976 1086.16 866.587 1086.26 869.329ZM1080.72 867.149L1076.33 867.308L1076.5 872.093L1080.89 871.933C1082.85 871.862 1083.86 870.957 1083.8 869.418C1083.74 867.879 1082.71 867.076 1080.72 867.149ZM1108 858.592L1102.41 875.102C1101.7 877.173 1100.96 879.133 1098.39 879.227C1097.77 879.249 1097.21 879.158 1096.61 879.039L1096.54 876.913C1097.3 877.109 1097.67 877.18 1098.09 877.165C1098.87 877.136 1099.47 876.582 1099.72 875.9L1100.75 873.229L1094.49 859.083L1097.17 858.986L1101.87 870.331L1105.51 858.683L1108 858.592ZM1110.51 872.959L1109.99 858.52L1116.68 858.277C1119.2 858.186 1121.65 858.657 1121.76 861.595C1121.81 863.134 1121.06 864.114 1119.74 864.778L1119.74 864.806C1121.43 865.081 1122.55 866.329 1122.62 868.26C1122.7 870.722 1120.95 872.579 1118.38 872.673L1110.51 872.959ZM1116.64 864.106C1118.68 864.032 1119.35 863.307 1119.31 862.076C1119.26 860.873 1118.6 860.253 1116.5 860.329L1112.39 860.478L1112.52 864.256L1116.64 864.106ZM1112.6 866.27L1112.76 870.831L1117.85 870.646C1119.37 870.592 1120.2 869.525 1120.15 868.154C1120.1 866.838 1119.23 866.03 1117.27 866.101L1112.6 866.27ZM1137.77 867.401C1137.17 870.757 1135.07 872.542 1131.66 872.667C1127.41 872.821 1124.76 870.115 1124.59 865.415C1124.42 860.742 1127.02 857.481 1131.02 857.336C1135.78 857.163 1137.7 860.875 1137.86 865.045L1137.87 865.38L1127.01 865.775L1126.99 865.944C1127.1 869.022 1128.87 870.806 1131.67 870.705C1133.74 870.63 1134.86 869.692 1135.45 867.485L1137.77 867.401ZM1135.34 863.539C1135.01 860.805 1133.41 859.21 1131.03 859.296C1128.71 859.381 1127.15 861.119 1126.94 863.844L1135.34 863.539ZM1142.34 857.345L1142.42 859.387C1143.47 857.556 1145.07 856.797 1147.19 856.72C1151.22 856.574 1153.88 859.391 1154.05 864.064C1154.22 868.737 1151.81 871.822 1147.86 871.966C1145.73 872.043 1144.23 871.397 1142.93 869.763L1143.21 877.346L1140.83 877.433L1140.1 857.426L1142.34 857.345ZM1146.9 858.72C1144.13 858.821 1142.53 861.008 1142.66 864.506C1142.79 868.003 1144.6 870.067 1147.4 869.965C1150.11 869.867 1151.71 867.651 1151.58 864.181C1151.46 860.684 1149.7 858.618 1146.9 858.72ZM1169.39 866.252C1168.78 869.609 1166.69 871.394 1163.28 871.518C1159.02 871.672 1156.37 868.967 1156.2 864.266C1156.03 859.593 1158.63 856.332 1162.63 856.187C1167.39 856.014 1169.32 859.727 1169.47 863.896L1169.48 864.232L1158.63 864.626L1158.6 864.795C1158.72 867.873 1160.49 869.658 1163.29 869.556C1165.36 869.481 1166.47 868.544 1167.07 866.337L1169.39 866.252ZM1166.95 862.39C1166.63 859.656 1165.03 858.061 1162.65 858.148C1160.33 858.232 1158.77 859.97 1158.56 862.695L1166.95 862.39ZM1174.62 870.629L1172.24 870.716L1171.72 856.277L1174.1 856.191L1174.31 861.927L1181.53 861.665L1181.32 855.928L1183.7 855.842L1184.22 870.281L1181.84 870.367L1181.6 863.763L1174.38 864.026L1174.62 870.629ZM1190.17 870.064L1187.79 870.151L1187.27 855.712L1189.65 855.626L1189.85 861.362L1197.07 861.1L1196.87 855.364L1199.24 855.277L1199.77 869.716L1197.39 869.802L1197.15 863.198L1189.93 863.461L1190.17 870.064ZM1215.51 864.576C1214.91 867.933 1212.82 869.718 1209.4 869.842C1205.15 869.996 1202.5 867.291 1202.33 862.59C1202.16 857.917 1204.76 854.656 1208.76 854.511C1213.52 854.338 1215.45 858.051 1215.6 862.22L1215.61 862.556L1204.75 862.95L1204.73 863.119C1204.84 866.197 1206.62 867.982 1209.41 867.88C1211.49 867.805 1212.6 866.868 1213.19 864.661L1215.51 864.576ZM1213.08 860.714C1212.75 857.98 1211.15 856.385 1208.78 856.472C1206.45 856.556 1204.89 858.294 1204.68 861.019L1213.08 860.714ZM1230.54 864.03C1229.94 867.387 1227.84 869.172 1224.43 869.296C1220.18 869.45 1217.53 866.745 1217.36 862.044C1217.19 857.371 1219.79 854.11 1223.79 853.965C1228.55 853.792 1230.47 857.505 1230.63 861.674L1230.64 862.01L1219.78 862.404L1219.76 862.573C1219.87 865.651 1221.65 867.436 1224.44 867.334C1226.51 867.259 1227.63 866.322 1228.22 864.115L1230.54 864.03ZM1228.11 860.168C1227.78 857.434 1226.18 855.839 1223.81 855.926C1221.48 856.01 1219.92 857.748 1219.71 860.473L1228.11 860.168Z" fill="#131313"/>
</g>
<rect x="326.215" y="184.344" width="110.765" height="50" rx="20" transform="rotate(8.29149 326.215 184.344)" fill="#F6E5DF"/>
<path d="M347.598 210.521L343.165 209.87C344.037 205.696 347.62 204.864 351.419 205.422C355.377 206.004 358.333 207.894 357.706 212.168L356.054 223.407L351.622 222.756L352.087 219.59L351.929 219.567C351.929 219.567 350.381 223.059 346.17 222.44C343.162 221.998 341.151 220.28 341.597 217.24C342.048 214.169 344.786 213.148 347.611 212.852C350.468 212.56 353.096 212.72 353.366 210.883C353.557 209.585 352.719 208.686 350.977 208.43C349.078 208.151 347.921 208.757 347.598 210.521ZM352.841 214.461C352.015 215.019 350.476 215.149 349.163 215.279C347.687 215.418 346.377 215.97 346.163 217.426C345.977 218.692 346.747 219.614 348.172 219.823C351.179 220.265 352.482 216.899 352.841 214.461ZM367.643 208.291L365.225 224.754L360.792 224.103L362.374 213.339L358.733 212.804L359.058 210.588C363.649 211.262 364.952 207.896 364.952 207.896L367.643 208.291ZM368.331 216.801L368.517 215.535L379.282 217.116L379.096 218.383L368.331 216.801ZM385.905 216.149L381.473 215.498C382.345 211.324 385.928 210.492 389.727 211.05C393.684 211.632 396.641 213.521 396.013 217.795L394.362 229.035L389.93 228.384L390.395 225.218L390.236 225.194C390.236 225.194 388.688 228.686 384.478 228.068C381.47 227.626 379.458 225.907 379.905 222.868C380.356 219.797 383.093 218.776 385.919 218.48C388.775 218.188 391.404 218.347 391.674 216.511C391.864 215.213 391.026 214.314 389.285 214.058C387.385 213.779 386.229 214.385 385.905 216.149ZM391.148 220.089C390.322 220.647 388.783 220.776 387.47 220.907C385.994 221.046 384.684 221.597 384.47 223.054C384.284 224.32 385.054 225.242 386.479 225.451C389.487 225.893 390.79 222.527 391.148 220.089ZM411.484 227.992L410.972 231.475L395.776 229.243L395.985 227.818C397.101 220.219 407.68 223.067 408.191 219.585C408.424 218.002 407.274 217.024 405.374 216.745C403.474 216.466 402.045 217.388 401.743 219.446L401.673 219.921L397.241 219.27L397.31 218.795C397.915 214.679 401.43 212.769 406.021 213.444C410.295 214.072 413.158 216.595 412.624 220.236C411.786 225.935 403.625 224.25 401.353 226.504L411.484 227.992Z" fill="#FF560B"/>
<rect x="1361.58" y="96.6758" width="90" height="50" rx="20" transform="rotate(13.9609 1361.58 96.6758)" fill="#E5E4F5"/>
<path d="M1389.19 125.151L1384.9 123.869C1386.36 119.864 1390.03 119.556 1393.71 120.655C1397.54 121.799 1400.2 124.095 1398.96 128.234L1395.71 139.119L1391.42 137.837L1392.33 134.771L1392.18 134.725C1392.18 134.725 1390.14 137.958 1386.07 136.741C1383.15 135.871 1381.41 133.881 1382.29 130.937C1383.18 127.963 1386.03 127.346 1388.87 127.459C1391.74 127.581 1394.32 128.117 1394.85 126.339C1395.23 125.082 1394.53 124.071 1392.84 123.568C1391 123.018 1389.77 123.452 1389.19 125.151ZM1393.82 129.804C1392.92 130.237 1391.38 130.144 1390.06 130.084C1388.58 130.01 1387.2 130.367 1386.78 131.777C1386.41 133.004 1387.04 134.027 1388.42 134.439C1391.34 135.309 1393.11 132.165 1393.82 129.804ZM1403.75 132.837C1402.89 135.72 1403.3 138.38 1406.03 139.195C1408.76 140.009 1410.56 138.009 1411.42 135.126C1412.28 132.244 1411.87 129.584 1409.14 128.769C1406.41 127.955 1404.61 129.955 1403.75 132.837ZM1399.46 131.556C1400.85 126.895 1404.86 123.984 1410.1 125.55C1415.35 127.116 1417.1 131.748 1415.71 136.408C1414.32 141.069 1410.31 143.98 1405.07 142.414C1399.82 140.848 1398.07 136.216 1399.46 131.556Z" fill="#5056EC"/>
<rect x="109.142" y="1066.67" width="110.765" height="50" rx="20" transform="rotate(-0.182375 109.142 1066.67)" fill="#E5E4F5"/>
<path d="M139.672 1091.68C139.662 1086.81 142.502 1082.87 147.974 1082.86C153.446 1082.85 155.982 1086.78 155.992 1091.65C155.993 1092.03 155.962 1092.61 155.962 1092.61L144.186 1092.63C144.383 1095.19 145.475 1097.11 148.163 1097.1C150.883 1097.1 151.358 1094.54 151.358 1094.54L155.838 1094.53C155.838 1094.53 154.89 1100.45 148.01 1100.46C142.41 1100.47 139.682 1096.54 139.672 1091.68ZM147.981 1086.22C145.773 1086.23 144.688 1087.7 144.308 1089.75L151.38 1089.74C151.088 1087.69 150.189 1086.22 147.981 1086.22ZM168.155 1094.5L172.475 1094.49C172.479 1096.41 171.207 1100.41 164.647 1100.43C159.847 1100.44 157.123 1098.36 157.116 1095.16C157.104 1088.92 167.667 1090.5 167.661 1087.78C167.659 1086.76 166.698 1085.86 164.938 1085.87C161.898 1085.87 161.902 1088.11 161.902 1088.11L157.582 1088.12C157.579 1086.52 158.691 1082.84 164.931 1082.83C169.411 1082.82 172.136 1084.89 172.141 1087.77C172.154 1094.01 161.59 1091.76 161.597 1095.31C161.599 1096.27 162.241 1097.39 164.641 1097.39C168.161 1097.38 168.155 1094.5 168.155 1094.5ZM178.063 1092.08L178.06 1090.8L185.068 1090.79C184.871 1088.16 183.843 1086.15 181.251 1086.15C178.051 1086.16 177.897 1089.36 177.897 1089.36L173.417 1089.37C173.417 1089.37 173.884 1082.81 181.244 1082.79C186.684 1082.78 189.572 1086.71 189.582 1091.58C189.592 1096.44 186.72 1100.38 181.28 1100.39C173.92 1100.41 173.426 1093.85 173.426 1093.85L177.906 1093.84C177.906 1093.84 178.073 1097.04 181.273 1097.03C183.961 1097.03 185.012 1094.85 185.103 1092.07L178.063 1092.08Z" fill="#5056EC"/>
<rect x="639.211" y="972" width="110.765" height="50" rx="20" transform="rotate(8.29149 639.211 972)" fill="#F6E5DF"/>
<path d="M669.788 1002.26C669.35 1005.23 670.137 1007.81 672.954 1008.22C675.772 1008.64 677.265 1006.4 677.703 1003.42C678.14 1000.44 677.354 997.871 674.536 997.457C671.718 997.043 670.225 999.282 669.788 1002.26ZM665.355 1001.61C666.062 996.794 669.61 993.337 675.024 994.133C680.438 994.928 682.842 999.259 682.135 1004.07C681.428 1008.88 677.88 1012.34 672.466 1011.55C667.052 1010.75 664.648 1006.42 665.355 1001.61ZM693.761 1008.69L698.035 1009.32C697.756 1011.22 695.908 1014.99 689.418 1014.04C684.669 1013.34 682.28 1010.89 682.745 1007.72C683.652 1001.55 693.867 1004.66 694.263 1001.97C694.412 1000.96 693.592 999.933 691.851 999.677C688.843 999.235 688.517 1001.45 688.517 1001.45L684.243 1000.82C684.476 999.241 686.119 995.762 692.293 996.669C696.725 997.321 699.114 999.774 698.695 1002.62C697.788 1008.8 687.671 1005.01 687.154 1008.53C687.015 1009.48 687.485 1010.68 689.86 1011.03C693.342 1011.54 693.761 1008.69 693.761 1008.69ZM703.917 1007.76L704.103 1006.49L711.037 1007.51C711.228 1004.88 710.508 1002.74 707.943 1002.36C704.777 1001.9 704.154 1005.04 704.154 1005.04L699.722 1004.39C699.722 1004.39 701.15 997.971 708.432 999.04C713.814 999.831 716.091 1004.14 715.384 1008.96C714.677 1013.77 711.256 1017.24 705.874 1016.45C698.592 1015.38 699.07 1008.82 699.07 1008.82L703.503 1009.47C703.503 1009.47 703.196 1012.66 706.362 1013.13C709.021 1013.52 710.383 1011.52 710.882 1008.78L703.917 1007.76Z" fill="#FF560B"/>
<rect x="121" y="641.537" width="110.765" height="50" rx="20" transform="rotate(-9.94092 121 641.537)" fill="#E5E4F5"/>
<path d="M146.904 671.855L144.05 655.462L151.932 654.09C156.188 653.349 158.642 654.383 159.163 657.378C159.629 660.058 157.217 661.128 157.217 661.128L157.245 661.285C157.245 661.285 160.349 661.394 160.898 664.547C161.447 667.7 159.672 669.633 155.258 670.401L146.904 671.855ZM153.578 663.547L150.11 664.151L150.769 667.934L154.552 667.276C155.971 667.029 156.649 666.261 156.43 665C156.21 663.739 155.155 663.273 153.578 663.547ZM149.616 661.314L152.769 660.765C154.345 660.491 155.024 659.723 154.832 658.619C154.64 657.516 153.899 656.995 152.481 657.242L149.013 657.846L149.616 661.314ZM167.687 651.347L170.541 667.74L166.128 668.509L164.262 657.79L160.636 658.421L160.252 656.214C164.823 655.419 165.008 651.813 165.008 651.813L167.687 651.347ZM171.003 659.215L170.784 657.954L181.503 656.088L181.722 657.349L171.003 659.215ZM184.895 665.242L182.042 648.848L189.923 647.476C194.179 646.735 196.633 647.77 197.154 650.765C197.621 653.445 195.208 654.514 195.208 654.514L195.236 654.672C195.236 654.672 198.34 654.781 198.889 657.934C199.438 661.086 197.663 663.019 193.25 663.787L184.895 665.242ZM191.569 656.934L188.102 657.538L188.76 661.321L192.543 660.662C193.962 660.415 194.64 659.648 194.421 658.387C194.201 657.126 193.146 656.66 191.569 656.934ZM187.608 654.7L190.76 654.152C192.337 653.877 193.015 653.109 192.823 652.006C192.631 650.903 191.89 650.382 190.472 650.629L187.004 651.233L187.608 654.7ZM215.337 656.37L215.941 659.837L200.808 662.472L200.562 661.053C199.244 653.487 210.183 652.882 209.579 649.414C209.305 647.838 207.906 647.269 206.015 647.598C204.123 647.928 203.054 649.251 203.411 651.3L203.493 651.773L199.08 652.541L198.997 652.068C198.284 647.97 201.025 645.056 205.596 644.261C209.852 643.52 213.362 645.02 213.993 648.646C214.981 654.32 206.701 655.274 205.249 658.126L215.337 656.37Z" fill="#5056EC"/>
<defs>
<clipPath id="clip0_2002_148">
<rect x="875" y="812.857" width="468.424" height="99.9809" rx="25" transform="rotate(-2.67438 875 812.857)" fill="white"/>
</clipPath>
</defs>
</svg>
