<svg width="459" height="459" viewBox="0 0 459 459" fill="none" xmlns="http://www.w3.org/2000/svg">
<path opacity="0.43" fill-rule="evenodd" clip-rule="evenodd" d="M154.103 4.79653C184.436 -5.37281 220.566 9.91214 254.611 43.84C268.629 57.8093 282.225 74.8792 294.827 94.487C262.339 97.1874 227.191 104.372 191.498 116.338C155.805 128.304 123.429 143.758 95.8791 161.186C94.1157 137.944 94.6751 116.129 97.4399 96.5328C104.155 48.9397 123.77 14.9659 154.103 4.79653ZM94.3389 162.165C88.0567 81.833 109.325 18.1097 153.591 3.26927C197.857 -11.5712 253.238 26.4548 296.647 94.3403C376.979 88.0581 440.702 109.327 455.543 153.592C470.383 197.858 432.357 253.239 364.472 296.648C370.754 376.98 349.485 440.704 305.22 455.544C260.954 470.384 205.573 432.359 162.164 364.473C81.8317 370.755 18.1085 349.487 3.268 305.221C-11.5725 260.955 26.4535 205.574 94.3389 162.165ZM161.185 362.933C137.943 364.696 116.127 364.137 96.5315 361.372C48.9385 354.657 14.9646 335.042 4.79527 304.709C-5.37406 274.376 9.91088 238.246 43.8387 204.201C57.808 190.183 74.8779 176.587 94.4857 163.985C97.186 196.473 104.37 231.621 116.337 267.314C128.303 303.007 143.757 335.383 161.185 362.933ZM163.002 362.791C145.466 335.209 129.899 302.701 117.864 266.802C105.828 230.902 98.6544 195.581 96.0215 163.003C123.603 145.467 156.111 129.901 192.01 117.865C227.91 105.83 263.231 98.6558 295.809 96.0228C313.345 123.604 328.911 156.112 340.947 192.012C352.982 227.911 360.156 263.232 362.789 295.81C335.208 313.346 302.7 328.913 266.8 340.948C230.901 352.984 195.58 360.158 163.002 362.791ZM163.983 364.326C176.586 383.934 190.182 401.004 204.2 414.973C238.245 448.901 274.375 464.186 304.708 454.017C335.04 443.847 354.656 409.874 361.371 362.28C364.136 342.685 364.695 320.869 362.932 297.628C335.381 315.055 303.006 330.509 267.313 342.475C231.619 354.442 196.471 361.626 163.983 364.326ZM364.325 294.829C383.933 282.226 401.003 268.63 414.972 254.613C448.9 220.567 464.185 184.437 454.015 154.104C443.846 123.772 409.872 104.156 362.279 97.4413C342.683 94.6765 320.868 94.1171 297.626 95.8804C315.054 123.431 330.508 155.806 342.474 191.5C354.44 227.193 361.625 262.341 364.325 294.829ZM270.078 146.046L244.832 201.631C237.937 216.813 244.105 234.737 258.884 242.46L312.991 270.735L257.406 245.489C242.224 238.593 224.3 244.762 216.577 259.54L188.302 313.648L213.548 258.062C220.444 242.881 214.275 224.957 199.497 217.234L145.389 188.959L200.975 214.205C216.157 221.1 234.081 214.932 241.803 200.154L270.078 146.046Z" fill="white"/>
</svg>
