<svg width="289" height="259" viewBox="0 0 289 259" fill="none" xmlns="http://www.w3.org/2000/svg">
<g opacity="0.5">
<path d="M199.824 238.051C177.513 250.051 152.044 254.878 126.889 251.874C101.735 248.869 78.1186 238.18 59.2615 221.262C40.4043 204.345 27.2237 182.024 21.5168 157.341C15.8099 132.659 17.8544 106.817 27.3717 83.3391L28.5215 83.8052C19.1002 107.047 17.0762 132.628 22.7256 157.062C28.375 181.495 41.4228 203.592 60.09 220.339C78.7572 237.086 102.135 247.668 127.036 250.642C151.938 253.616 177.15 248.838 199.237 236.958L199.824 238.051Z" fill="white"/>
<path d="M83.1629 21.152C105.474 9.15183 130.943 4.32489 156.098 7.32935C181.253 10.3338 204.869 21.0234 223.726 37.9407C242.583 54.858 255.764 77.1796 261.471 101.862C267.177 126.544 265.133 152.386 255.616 175.864L254.466 175.398C263.887 152.157 265.911 126.575 260.262 102.141C254.612 77.7078 241.564 55.6111 222.897 38.8643C204.23 22.1174 180.852 11.5355 155.951 8.56131C131.05 5.58712 105.837 10.3654 83.7507 22.2447L83.1629 21.152Z" fill="white"/>
<path d="M82.1444 0L82.4847 12.3217C82.6711 19.0748 88.1017 24.5054 94.8549 24.6919L107.177 25.0321L94.8549 25.3724C88.1017 25.5588 82.6711 30.9894 82.4847 37.7426L82.1444 50.0643L81.8042 37.7426C81.6177 30.9894 76.1871 25.5588 69.434 25.3724L57.1123 25.0321L69.434 24.6919C76.1871 24.5054 81.6177 19.0748 81.8042 12.3217L82.1444 0Z" fill="white"/>
<path d="M279.869 165.286L268.521 170.097C262.301 172.734 259.225 179.772 261.515 186.127L265.693 197.724L260.882 186.376C258.245 180.156 251.207 177.08 244.851 179.37L233.255 183.548L244.603 178.736C250.823 176.1 253.899 169.062 251.609 162.706L247.431 151.11L252.242 162.458C254.879 168.678 261.917 171.753 268.272 169.464L279.869 165.286Z" fill="white"/>
<path d="M203.067 258.564L202.513 246.25C202.209 239.501 196.685 234.166 189.93 234.097L177.604 233.971L189.918 233.416C196.667 233.113 202.002 227.588 202.071 220.833L202.197 208.507L202.752 220.821C203.055 227.57 208.58 232.905 215.335 232.975L227.661 233.101L215.347 233.655C208.598 233.959 203.262 239.483 203.193 246.238L203.067 258.564Z" fill="white"/>
<path d="M52.5413 80.0071L40.3343 81.7182C33.644 82.656 28.8523 88.658 29.4196 95.3898L30.4545 107.673L28.7433 95.4657C27.8055 88.7754 21.8036 83.9837 15.0717 84.5509L2.78887 85.5858L14.9959 83.8747C21.6862 82.9369 26.4779 76.935 25.9106 70.2031L24.8757 57.9202L26.5869 70.1273C27.5247 76.8176 33.5266 81.6092 40.2585 81.042L52.5413 80.0071Z" fill="white"/>
</g>
</svg>
