<svg width="1951" height="1446" viewBox="0 0 1951 1446" fill="none" xmlns="http://www.w3.org/2000/svg">
<path fill-rule="evenodd" clip-rule="evenodd" d="M1105.74 1426.68C959.229 1442.71 832.355 1388.7 687.415 1382.71C465.164 1373.52 158.165 1527.88 33.0259 1382.35C-89.064 1240.36 165.289 1035.6 234.24 855.678C283.833 726.266 307.716 600.426 379.954 477.053C477.643 310.212 521.314 77.9673 727.167 13.8209C931.307 -49.7917 1090.12 138.248 1282.29 195.873C1469.2 251.921 1711.99 219.712 1836.16 346.368C1964.09 476.859 1969.81 675.007 1925.64 852.111C1884.32 1017.78 1762.28 1170.75 1602.65 1282.62C1461.89 1381.26 1280.49 1407.57 1105.74 1426.68Z" fill="white"/>
</svg>
