<svg width="186" height="170" viewBox="0 0 186 170" fill="none" xmlns="http://www.w3.org/2000/svg">
<path fill-rule="evenodd" clip-rule="evenodd" d="M89.921 0.121659C105.785 1.57572 114.48 19.1176 127.025 28.9373C137.689 37.2844 151.566 41.9782 158.36 53.6931C165.158 65.4154 160.834 80.1105 164.301 93.2107C169.244 111.881 194.497 131.429 183.056 146.988C170.903 163.516 142.853 146.416 122.634 149.878C110.861 151.894 101.512 160.053 89.921 162.937C75.4127 166.546 60.7474 172.482 46.2368 168.882C30.1576 164.894 13.4588 156.489 5.45527 141.982C-2.53571 127.499 -0.766322 108.896 4.48699 93.2107C9.16901 79.2307 25.0761 72.7847 32.8298 60.2454C40.2528 48.2407 38.9523 31.9905 48.671 21.7556C59.5478 10.301 74.1919 -1.32004 89.921 0.121659Z" fill="white"/>
</svg>
