<svg width="2000" height="1150" viewBox="0 0 2000 1150" fill="none" xmlns="http://www.w3.org/2000/svg">
<path d="M1955.43 707.846C2000.72 778.19 2024.12 918.85 1755.43 918.739C1486.74 918.628 1606.87 608.512 1700.52 453.468C1736.59 395.173 1789 255.433 1710.16 162.835C1611.61 47.0876 1513.06 25.9922 1461.93 59.7164C1410.81 93.4406 1345.43 233.568 1390.96 335.434C1436.49 437.3 1429.67 657.115 1390 699.556C1350.32 741.998 998.241 850.509 1033.06 741.679C1067.87 632.849 1062.17 269.01 973.228 234.697C884.286 200.384 706.469 201.733 670.481 300.632C634.494 399.532 988.69 769.571 905.393 909.296C822.096 1049.02 578.562 1149.76 526.421 1048.67C474.279 947.585 617.898 486.073 504.357 394.75C390.815 303.428 288.365 255.605 233.273 381.932C178.182 508.259 411.958 425.794 326.473 326.125C240.989 226.457 30.5168 285.531 20.7307 391.911C10.9446 498.291 493.164 773.17 303.885 980.28C152.462 1145.97 106.285 1116.88 102.124 1081.62" stroke="#FF560B" stroke-width="3" stroke-linecap="round" stroke-dasharray="15 15"/>
<rect x="157.999" y="248.121" width="110.765" height="50" rx="20" transform="rotate(-9.94092 157.999 248.121)" fill="#E5E4F5"/>
<path d="M201.182 259.411L202.318 265.937L206.699 258.451L211.901 257.545L206.978 265.093L215.07 273.884L209.679 274.822L204.517 268.867L203.185 270.918L204.036 275.805L199.622 276.573L198.771 271.686L196.793 270.212L193.979 277.555L188.588 278.494L193.233 267.486L186.049 262.045L191.251 261.14L197.904 266.705L196.768 260.179L201.182 259.411ZM227.996 254.743L230.521 269.245C231.344 273.974 229.398 277.723 223.723 278.711C216.157 280.028 215.012 274.381 215.012 274.381L219.425 273.613C219.425 273.613 219.994 275.95 223.147 275.401C225.953 274.913 226.656 273.166 226.162 270.329L226.025 269.541L225.867 269.568C225.867 269.568 224.832 272.022 221.365 272.626C216.636 273.449 213.558 269.762 212.817 265.506C212.076 261.25 213.727 256.74 218.456 255.917C222.081 255.286 223.967 257.719 223.967 257.719L224.124 257.691L223.74 255.484L227.996 254.743ZM225.112 263.366C224.651 260.718 222.973 258.541 220.293 259.008C217.614 259.474 216.77 262.09 217.231 264.738C217.692 267.386 219.37 269.562 222.049 269.096C224.729 268.629 225.573 266.014 225.112 263.366ZM245.818 251.641L242.922 269.523C242.282 273.499 240.915 275.719 237.604 276.295C236.028 276.569 234.685 276.316 234.685 276.316L234.054 272.69C234.054 272.69 235.054 272.841 236.158 272.649C237.734 272.375 238.216 271.414 238.584 269.791L229.109 254.55L233.838 253.726L239.724 263.843L241.089 252.464L245.818 251.641Z" fill="#5056EC"/>
<g clip-path="url(#clip0_2078_3)">
<rect x="1137.84" y="735.699" width="131.67" height="50" rx="20" transform="rotate(15.0039 1137.84 735.699)" fill="#E5E4F5"/>
<path d="M1167.77 761.6L1157.6 776.592C1155.35 779.928 1153.17 781.363 1149.93 780.49C1148.38 780.074 1147.27 779.277 1147.27 779.277L1148.23 775.724C1148.23 775.724 1149.07 776.282 1150.15 776.574C1151.7 776.99 1152.54 776.322 1153.56 775.005L1151.39 757.19L1156.03 758.438L1157.1 770.093L1163.14 760.352L1167.77 761.6ZM1173.95 771.88C1175.22 767.183 1179.02 764.132 1184.27 765.546C1191.38 767.46 1190.14 773.919 1190.14 773.919L1185.81 772.754C1185.81 772.754 1186.49 769.622 1183.4 768.79C1180.65 768.05 1179.06 770.14 1178.28 773.045C1177.5 775.95 1177.82 778.556 1180.57 779.296C1183.66 780.128 1184.65 777.08 1184.65 777.08L1188.97 778.245C1188.97 778.245 1186.8 784.454 1179.7 782.541C1174.45 781.126 1172.69 776.577 1173.95 771.88ZM1190.79 776.414C1192.05 771.717 1195.83 768.657 1201.11 770.08C1206.4 771.502 1207.81 775.96 1206.55 780.657C1206.45 781.028 1206.27 781.576 1206.27 781.576L1194.9 778.514C1194.42 781.036 1194.97 783.173 1197.56 783.872C1200.19 784.579 1201.32 782.232 1201.32 782.232L1205.65 783.396C1205.65 783.396 1203.18 788.863 1196.54 787.074C1191.13 785.618 1189.53 781.111 1190.79 776.414ZM1200.24 773.324C1198.11 772.75 1196.67 773.889 1195.77 775.766L1202.6 777.605C1202.85 775.553 1202.37 773.898 1200.24 773.324ZM1212.13 782.658C1211.44 785.254 1211.96 787.747 1214.71 788.487C1217.46 789.228 1219.16 787.334 1219.86 784.738C1220.56 782.142 1220.04 779.649 1217.29 778.909C1214.54 778.168 1212.83 780.063 1212.13 782.658ZM1213.83 791.732C1209.51 790.567 1206.16 787.014 1208.24 779.289C1211.02 768.937 1216.35 768.715 1220.83 769.922L1226.73 771.511L1225.78 775.064L1219.51 773.375C1216.01 772.435 1214.3 773.631 1212.86 776.888L1213.01 776.93C1213.01 776.93 1215.07 774.832 1218.78 775.831C1223.57 777.12 1225.39 781.422 1224.19 785.903C1223.02 790.229 1219.24 793.188 1213.83 791.732ZM1241.94 781.569L1237.61 797.637L1233.28 796.472L1234.86 790.601L1231.77 789.769L1227.63 794.949L1222.78 793.643L1227.84 787.882C1226.22 786.517 1225.67 784.745 1226.19 782.799C1227.03 779.709 1230.04 778.366 1234.52 779.572L1241.94 781.569ZM1233.22 786.845L1235.7 787.511L1236.78 783.494L1234.31 782.829C1231.99 782.205 1230.9 782.573 1230.52 783.963C1230.15 785.354 1230.91 786.221 1233.22 786.845Z" fill="#5056EC"/>
</g>
<g clip-path="url(#clip1_2078_3)">
<rect x="882.152" y="209.27" width="110.765" height="50" rx="20" transform="rotate(-11.5009 882.152 209.27)" fill="#F6E5DF"/>
<path d="M915.107 234.463L913.267 225.367C912.696 222.544 911.877 221.404 910.152 221.753C908.27 222.133 907.552 223.748 908.218 227.041L909.931 235.51L905.54 236.398L902.241 220.088L906.476 219.232L907.015 221.898L907.172 221.866C907.172 221.866 907.635 218.507 910.928 217.841C913.563 217.308 915.228 218.277 916.242 220.064L916.267 220.026L916.424 219.994C916.424 219.994 917.201 216.572 920.495 215.906C924.572 215.081 926.272 217.839 927.034 221.603L929.064 231.64L924.673 232.528L922.833 223.432C922.262 220.609 921.444 219.469 919.719 219.818C917.837 220.198 917.119 221.813 917.785 225.106L919.498 233.575L915.107 234.463ZM928.82 223.201C927.855 218.433 929.867 214.011 935.23 212.926C940.593 211.841 943.851 215.198 944.816 219.965C944.892 220.341 944.975 220.912 944.975 220.912L933.432 223.247C934.128 225.718 935.575 227.384 938.21 226.851C940.876 226.312 940.839 223.708 940.839 223.708L945.23 222.82C945.23 222.82 945.463 228.812 938.719 230.176C933.23 231.287 929.784 227.968 928.82 223.201ZM935.896 216.219C933.732 216.657 932.957 218.315 932.987 220.399L939.919 218.997C939.23 217.046 938.06 215.781 935.896 216.219ZM950.707 219.263C951.24 221.898 952.82 223.896 955.611 223.332C958.403 222.767 959.081 220.312 958.548 217.677C958.016 215.042 956.436 213.044 953.645 213.609C950.853 214.173 950.174 216.628 950.707 219.263ZM956.277 226.625C951.886 227.513 947.301 225.829 945.715 217.987C943.59 207.48 948.26 204.903 952.808 203.983L958.798 202.772L959.528 206.379L953.161 207.666C949.617 208.383 948.617 210.218 948.781 213.776L948.938 213.744C948.938 213.744 949.842 210.95 953.606 210.188C958.467 209.205 962.02 212.241 962.94 216.789C963.828 221.18 961.766 225.515 956.277 226.625ZM976.891 204.989L980.19 221.298L975.799 222.187L974.593 216.227L971.457 216.862L970.059 223.348L965.135 224.344L967.095 216.928C965.036 216.43 963.753 215.09 963.353 213.114C962.719 209.977 964.815 207.431 969.363 206.511L976.891 204.989ZM971.45 213.598L973.959 213.091L973.134 209.013L970.625 209.521C968.273 209.997 967.459 210.814 967.744 212.226C968.03 213.637 969.097 214.074 971.45 213.598Z" fill="#FF560B"/>
</g>
<defs>
<clipPath id="clip0_2078_3">
<rect x="1137.84" y="735.699" width="131.67" height="50" rx="20" transform="rotate(15.0039 1137.84 735.699)" fill="white"/>
</clipPath>
<clipPath id="clip1_2078_3">
<rect x="882.152" y="209.27" width="110.765" height="50" rx="20" transform="rotate(-11.5009 882.152 209.27)" fill="white"/>
</clipPath>
</defs>
</svg>
