<svg width="154" height="21" viewBox="0 0 154 21" fill="none" xmlns="http://www.w3.org/2000/svg">
<path d="M10.08 20V14.26H4.62V20H0.7V5.44H4.62V11.18H10.08V5.44H14V20H10.08ZM15.2709 12.72C15.2709 8.464 17.7629 5.02 22.5509 5.02C27.3389 5.02 29.5509 8.464 29.5509 12.72C29.5509 13.056 29.5229 13.56 29.5229 13.56H19.2189C19.3869 15.8 20.3389 17.48 22.6909 17.48C25.0709 17.48 25.4909 15.24 25.4909 15.24H29.4109C29.4109 15.24 28.5709 20.42 22.5509 20.42C17.6509 20.42 15.2709 16.976 15.2709 12.72ZM22.5509 7.96C20.6189 7.96 19.6669 9.248 19.3309 11.04H25.5189C25.2669 9.248 24.4829 7.96 22.5509 7.96ZM41.8655 16.92V20H30.8055V5.44H34.7255V16.92H41.8655ZM54.0334 16.92V20H42.9734V5.44H46.8934V16.92H54.0334ZM58.0738 12.72C58.0738 15.352 59.0818 17.48 61.5738 17.48C64.0658 17.48 65.0738 15.352 65.0738 12.72C65.0738 10.088 64.0658 7.96 61.5738 7.96C59.0818 7.96 58.0738 10.088 58.0738 12.72ZM54.1538 12.72C54.1538 8.464 56.7858 5.02 61.5738 5.02C66.3618 5.02 68.9938 8.464 68.9938 12.72C68.9938 16.976 66.3618 20.42 61.5738 20.42C56.7858 20.42 54.1538 16.976 54.1538 12.72ZM76.7091 5.44H89.8691V8.52H85.1091V15.38C85.1091 16.64 85.5291 17.06 86.7891 17.06C87.6291 17.06 88.0491 16.92 88.0491 16.92V19.86C88.0491 19.86 87.3491 20.14 85.6691 20.14C83.0091 20.14 81.1891 19.44 81.1891 16.08V8.52H76.7091V5.44ZM100.369 20V14.26H94.9091V20H90.9891V5.44H94.9091V11.18H100.369V5.44H104.289V20H100.369ZM105.56 12.72C105.56 8.464 108.052 5.02 112.84 5.02C117.628 5.02 119.84 8.464 119.84 12.72C119.84 13.056 119.812 13.56 119.812 13.56H109.508C109.676 15.8 110.628 17.48 112.98 17.48C115.36 17.48 115.78 15.24 115.78 15.24H119.7C119.7 15.24 118.86 20.42 112.84 20.42C107.94 20.42 105.56 16.976 105.56 12.72ZM112.84 7.96C110.908 7.96 109.956 9.248 109.62 11.04H115.808C115.556 9.248 114.772 7.96 112.84 7.96ZM121.095 20V5.44H125.015V8.52H126.975C128.655 8.52 129.215 8.52 129.215 6.7V5.44H133.135V7.12C133.135 10.34 132.015 11.32 127.955 11.32H125.015V20H121.095ZM133.396 12.72C133.396 8.464 135.888 5.02 140.676 5.02C145.464 5.02 147.676 8.464 147.676 12.72C147.676 13.056 147.648 13.56 147.648 13.56H137.344C137.512 15.8 138.464 17.48 140.816 17.48C143.196 17.48 143.616 15.24 143.616 15.24H147.536C147.536 15.24 146.696 20.42 140.676 20.42C135.776 20.42 133.396 16.976 133.396 12.72ZM140.676 7.96C138.744 7.96 137.792 9.248 137.456 11.04H143.644C143.392 9.248 142.608 7.96 140.676 7.96ZM149.07 18.04C149.07 16.808 150.078 15.8 151.31 15.8C152.542 15.8 153.55 16.808 153.55 18.04C153.55 19.272 152.542 20.28 151.31 20.28C150.078 20.28 149.07 19.272 149.07 18.04ZM153.27 0.399999V14.4H149.35V0.399999H153.27Z" fill="#131313"/>
</svg>
